<svg xmlns="http://www.w3.org/2000/svg" viewBox="0 0 5632 3072" width="5632" height="3072">
  <defs>
    <!-- Arrowheads -->
    <marker id="arrow" viewBox="0 0 10 10" refX="9" refY="5" markerWidth="6" markerHeight="6" orient="auto-start-reverse">
      <path d="M 0 0 L 10 5 L 0 10 z" fill="#1c2d3d" />
    </marker>
    <marker id="arrow-green" viewBox="0 0 10 10" refX="9" refY="5" markerWidth="6" markerHeight="6" orient="auto-start-reverse">
      <path d="M 0 0 L 10 5 L 0 10 z" fill="#4d7f5b" />
    </marker>
    <marker id="arrow-blue" viewBox="0 0 10 10" refX="9" refY="5" markerWidth="6" markerHeight="6" orient="auto-start-reverse">
      <path d="M 0 0 L 10 5 L 0 10 z" fill="#58799c" />
    </marker>
    <marker id="arrow-black" viewBox="0 0 10 10" refX="9" refY="5" markerWidth="6" markerHeight="6" orient="auto-start-reverse">
      <path d="M 0 0 L 10 5 L 0 10 z" fill="black" />
    </marker>
    <marker id="arrow-large" viewBox="0 0 10 10" refX="9" refY="5" markerWidth="8" markerHeight="8" orient="auto-start-reverse">
      <path d="M 0 0 L 10 5 L 0 10 z" fill="#1c2d3d" />
    </marker>
    <marker id="arrow-thin" viewBox="0 0 10 10" refX="9" refY="5" markerWidth="5" markerHeight="5" orient="auto-start-reverse">
      <path d="M 0 0 L 10 5 L 0 10 z" fill="black" />
    </marker>
    
    <!-- Gradients -->
    <linearGradient id="disease-risk-grad" x1="0%" y1="0%" x2="100%" y2="0%">
      <stop offset="0%" stop-color="#4d7f5b" />
      <stop offset="50%" stop-color="#d6b656" />
      <stop offset="100%" stop-color="#c16640" />
    </linearGradient>
    <linearGradient id="split-bar-grad" x1="0%" y1="0%" x2="100%" y2="0%">
      <stop offset="70%" stop-color="#a6c8e6" />
      <stop offset="70%" stop-color="#b5d9b5" />
      <stop offset="80%" stop-color="#b5d9b5" />
      <stop offset="80%" stop-color="#f5d699" />
      <stop offset="100%" stop-color="#f5d699" />
    </linearGradient>
    
    <!-- Component Styles -->
    <style>
      .title-text { font-family: Arial, sans-serif; font-size: 72px; font-weight: bold; }
      .box-title { font-family: Arial, sans-serif; font-size: 48px; font-weight: bold; }
      .normal-text { font-family: Arial, sans-serif; font-size: 36px; }
      .small-text { font-family: Arial, sans-serif; font-size: 28px; }
      .math-text { font-family: "Times New Roman", serif; font-size: 36px; font-style: italic; }
      .math-sub { font-family: "Times New Roman", serif; font-size: 24px; font-style: italic; }
      
      .panel-bg-blue { fill: #d3e3f0; stroke: #58799c; stroke-width: 4; rx: 20; }
      .panel-bg-green { fill: #e2efdf; stroke: #4d7f5b; stroke-width: 4; rx: 20; }
      .panel-bg-white { fill: white; stroke: #58799c; stroke-width: 4; rx: 20; }
      .panel-bg-gray { fill: #f2f2f2; stroke: #cccccc; stroke-width: 2; rx: 20; }
      
      .node-blue { fill: #7faad4; stroke: black; stroke-width: 4; }
      .node-green { fill: #9ec89e; stroke: black; stroke-width: 4; }
      .node-orange { fill: #f1b867; stroke: black; stroke-width: 4; }
      
      .feature-box-blue { fill: #7faad4; stroke: black; stroke-width: 3; }
      .feature-box-green { fill: #9ec89e; stroke: black; stroke-width: 3; }
      .feature-box-orange { fill: #f1b867; stroke: black; stroke-width: 3; }
      
      .lstm-box { fill: #b5d9b5; stroke: black; stroke-width: 4; rx: 10; }
      .badge-auc { fill: #b5d9b5; stroke: black; stroke-width: 3; rx: 20; }
      .badge-precision { fill: #b5d9b5; stroke: black; stroke-width: 3; rx: 20; }
      .badge-recall { fill: #b5d9b5; stroke: black; stroke-width: 3; rx: 20; }
      .badge-f1 { fill: #f5d699; stroke: black; stroke-width: 3; rx: 20; }
      
      .connection-line { stroke: black; stroke-width: 4; fill: none; }
      .connection-line-blue { stroke: #58799c; stroke-width: 4; fill: none; }
      .connection-line-green { stroke: #4d7f5b; stroke-width: 4; fill: none; }
      .dashed-line { stroke: black; stroke-width: 3; stroke-dasharray: 10,10; fill: none; }
      .kinship-line { stroke: #f1b867; stroke-width: 8; fill: none; }
      .graph-edge { stroke: black; stroke-width: 3; fill: none; }
      .graph-edge-light { stroke: #888888; stroke-width: 2; fill: none; }
    </style>
  </defs>

  <!-- Background -->
  <rect width="5632" height="3072" fill="#ffffff" />

  <!-- Top Title Bar -->
  <g id="top-title" transform="translate(100, 100)">
    <text x="0" y="0" class="title-text">ALIGATEHR-Gen</text>
    <line x1="550" y1="-20" x2="650" y2="-20" stroke="black" stroke-width="6" marker-end="url(#arrow-large)" />
    <text x="680" y="0" class="title-text" font-weight="normal">Patient <tspan font-weight="bold">+</tspan> Medical Ontology</text>
    <line x1="1630" y1="-20" x2="1730" y2="-20" stroke="black" stroke-width="6" marker-end="url(#arrow-large)" />
    <text x="1760" y="0" class="title-text" font-weight="normal">Graph Attention Modules</text>
    <line x1="2620" y1="-20" x2="2720" y2="-20" stroke="black" stroke-width="6" marker-end="url(#arrow-large)" />
    <text x="2750" y="0" class="title-text" font-weight="normal">LSTM Next-Visit Disease Prediction</text>
  </g>

  <!-- Panel 1: UK Biobank Data Sources -->
  <g id="panel-ukb" transform="translate(50, 180)">
    <rect x="0" y="0" width="1050" height="2350" class="panel-bg-blue" />
    <text x="525" y="70" text-anchor="middle" class="box-title">“UK Biobank Data Sources</text>
    
    <g id="AF03">
      <rect x="80" y="650" width="220" height="300" fill="#808080" stroke="black" stroke-width="2"/>
      <text x="190" y="800" text-anchor="middle" dominant-baseline="middle" fill="white" font-size="36">&lt;AF&gt;03</text>
    </g>
    <text x="190" y="1000" text-anchor="middle" class="normal-text">UKB</text>

    <path d="M 320 700 C 400 700, 400 450, 480 450" class="connection-line" marker-end="url(#arrow)" />
    <path d="M 320 800 C 400 800, 400 950, 480 950" class="connection-line" marker-end="url(#arrow)" />
    <path d="M 230 1020 L 230 1350 L 530 1350" class="connection-line" marker-end="url(#arrow)" />

    <g id="AF28">
      <rect x="520" y="250" width="350" height="350" fill="#808080" stroke="black" stroke-width="2"/>
      <text x="695" y="425" text-anchor="middle" dominant-baseline="middle" fill="white" font-size="36">&lt;AF&gt;28</text>
    </g>
    <text x="695" y="650" text-anchor="middle" class="normal-text">Primary care +</text>
    <text x="695" y="700" text-anchor="middle" class="normal-text">inpatient EHR</text>

    <g id="AF08">
      <rect x="520" y="850" width="350" height="150" fill="#808080" stroke="black" stroke-width="2"/>
      <text x="695" y="925" text-anchor="middle" dominant-baseline="middle" fill="white" font-size="36">&lt;AF&gt;08</text>
    </g>
    <text x="695" y="1060" text-anchor="middle" class="normal-text">Genetic data</text>

    <g id="AF27">
      <rect x="560" y="1180" width="200" height="180" fill="#808080" stroke="black" stroke-width="2"/>
      <text x="660" y="1270" text-anchor="middle" dominant-baseline="middle" fill="white" font-size="36">&lt;AF&gt;27</text>
    </g>
    <text x="660" y="1410" text-anchor="middle" class="normal-text">Age / Sex</text>

    <text x="80" y="1520" class="normal-text">“EHR + genetic data”</text>
    <text x="80" y="1570" class="normal-text">“Patient demographics”</text>
    
    <path d="M 250 1600 C 250 1900, 500 1900, 600 1900" class="connection-line" marker-end="url(#arrow)" />

    <!-- Medical Ontology Tree -->
    <g transform="translate(700, 1800)">
      <circle cx="0" cy="0" r="20" class="node-green" />
      <circle cx="-60" cy="60" r="20" class="node-green" />
      <circle cx="60" cy="60" r="20" class="node-green" />
      <circle cx="-90" cy="120" r="20" class="node-green" />
      <circle cx="-30" cy="120" r="20" class="node-green" />
      <circle cx="30" cy="120" r="20" class="node-green" />
      <circle cx="90" cy="120" r="20" class="node-green" />
      
      <line x1="0" y1="20" x2="-60" y2="40" class="graph-edge" />
      <line x1="0" y1="20" x2="60" y2="40" class="graph-edge" />
      <line x1="-60" y1="80" x2="-90" y2="100" class="graph-edge" />
      <line x1="-60" y1="80" x2="-30" y2="100" class="graph-edge" />
      <line x1="60" y1="80" x2="30" y2="100" class="graph-edge" />
      <line x1="60" y1="80" x2="90" y2="100" class="graph-edge" />
      
      <text x="0" y="170" text-anchor="middle" class="normal-text">Medical</text>
      <text x="0" y="210" text-anchor="middle" class="normal-text">ontology</text>
    </g>
  </g>

  <path d="M 1100 780 L 1180 780" class="connection-line-blue" marker-end="url(#arrow-blue)" />
  <path d="M 1100 1980 L 1180 1980" class="connection-line-green" marker-end="url(#arrow-green)" />

  <!-- Panel 2: Data Processing -->
  <g id="panel-data-processing" transform="translate(1180, 180)">
    <rect x="0" y="0" width="1050" height="1250" class="panel-bg-blue" />
    <text x="525" y="70" text-anchor="middle" class="box-title">Data Processing</text>

    <g id="AF23">
      <rect x="80" y="500" width="150" height="200" fill="#808080" stroke="black" stroke-width="2"/>
      <text x="155" y="600" text-anchor="middle" dominant-baseline="middle" fill="white" font-size="28">&lt;AF&gt;23</text>
    </g>
    <text x="155" y="740" text-anchor="middle" class="normal-text">Cohort</text>
    <text x="155" y="780" text-anchor="middle" class="normal-text">filtering</text>

    <path d="M 250 600 L 320 600" class="connection-line" />
    <path d="M 320 600 L 320 450 L 450 450" class="connection-line" marker-end="url(#arrow)" />
    <path d="M 320 600 L 320 750 L 450 750" class="connection-line" marker-end="url(#arrow)" />
    <path d="M 320 600 L 320 1000 L 450 1000" class="connection-line" marker-end="url(#arrow)" />

    <!-- Feature Vectors -->
    <g transform="translate(460, 200)">
      <rect x="0" y="0" width="60" height="40" class="feature-box-blue" />
      <rect x="60" y="0" width="60" height="40" class="feature-box-green" />
      <rect x="120" y="0" width="60" height="40" class="feature-box-green" />
      <rect x="180" y="0" width="60" height="40" class="feature-box-orange" />
      <rect x="240" y="0" width="60" height="40" class="feature-box-orange" />
      <text x="320" y="25" class="normal-text">Feature-</text>
      <text x="320" y="65" class="normal-text">vector</text>
      
      <rect x="0" y="80" width="60" height="40" class="feature-box-blue" />
      <rect x="60" y="80" width="60" height="40" class="feature-box-green" />
      <rect x="120" y="80" width="60" height="40" class="feature-box-green" />
      <rect x="180" y="80" width="60" height="40" class="feature-box-orange" />
      <rect x="240" y="80" width="60" height="40" class="feature-box-orange" />
      <text x="320" y="105" class="normal-text">Disease-status</text>
      <text x="320" y="145" class="normal-text">vector</text>
      
      <path d="M 300 60 L 310 60" class="connection-line" />
      <path d="M 150 140 L 150 180" class="connection-line" />
    </g>

    <!-- Visit History -->
    <g transform="translate(430, 450)">
      <rect x="20" y="20" width="350" height="280" fill="white" stroke="black" stroke-width="2" rx="10" />
      <rect x="10" y="10" width="350" height="280" fill="white" stroke="black" stroke-width="2" rx="10" />
      <g id="AF02">
        <rect x="0" y="0" width="350" height="280" fill="#808080" stroke="black" stroke-width="2"/>
        <text x="175" y="140" text-anchor="middle" dominant-baseline="middle" fill="white" font-size="36">&lt;AF&gt;02</text>
      </g>
      <text x="175" y="320" text-anchor="middle" class="normal-text">Visit history</text>
    </g>

    <text x="830" y="600" class="normal-text">Identify</text>
    <text x="830" y="640" class="normal-text">first-degree</text>
    <text x="830" y="680" class="normal-text">relatives</text>
    <path d="M 780 600 L 1000 600" class="connection-line-blue" marker-end="url(#arrow-blue)" />

    <g id="AF24">
      <rect x="460" y="900" width="120" height="150" fill="#808080" stroke="black" stroke-width="2"/>
      <text x="520" y="975" text-anchor="middle" dominant-baseline="middle" fill="white" font-size="28">&lt;AF&gt;24</text>
    </g>
    <text x="520" y="1100" text-anchor="middle" class="normal-text">Age / sex</text>
    <text x="520" y="1140" text-anchor="middle" class="normal-text">features</text>
    
    <text x="155" y="1060" text-anchor="middle" class="normal-text">Extract</text>
    <text x="155" y="1100" text-anchor="middle" class="normal-text">clinical</text>
    <text x="155" y="1140" text-anchor="middle" class="normal-text">features</text>
    
    <text x="700" y="970" class="normal-text">Prepare</text>
    <text x="700" y="1010" class="normal-text">prediction</text>
    <text x="700" y="1050" class="normal-text">datasets</text>
    <path d="M 600 1000 L 680 1000" class="connection-line" marker-end="url(#arrow)" />
  </g>

  <!-- Panel 3: Patient Graph -->
  <g id="panel-patient-graph" transform="translate(2320, 180)">
    <rect x="0" y="0" width="1050" height="1250" class="panel-bg-blue" />
    <text x="525" y="70" text-anchor="middle" class="box-title">Patient Graph</text>

    <text x="60" y="160" class="normal-text">patient</text>
    <text x="60" y="200" class="normal-text">disease</text>
    <text x="60" y="240" class="normal-text">vector <tspan class="math-text">h</tspan><tspan class="math-sub" dy="10">i</tspan></text>
    <path d="M 220 220 C 300 220, 320 280, 360 280" class="connection-line" marker-end="url(#arrow-thin)" />
    <path d="M 100 280 C 100 400, 120 480, 160 480" class="connection-line" marker-end="url(#arrow-thin)" />
    
    <text x="800" y="160" class="normal-text">Family</text>
    <text x="800" y="200" class="normal-text">relations</text>

    <!-- Main Graph -->
    <g transform="translate(450, 450)">
      <line x1="-70" y1="-170" x2="150" y2="-250" class="kinship-line" />
      <line x1="-70" y1="-170" x2="70" y2="40" class="kinship-line" />
      <line x1="150" y1="-250" x2="350" y2="-100" class="kinship-line" />
      <line x1="70" y1="40" x2="350" y2="-100" class="kinship-line" />
      
      <line x1="-70" y1="-170" x2="-250" y2="-100" class="graph-edge" />
      <line x1="-70" y1="-170" x2="-280" y2="100" class="graph-edge" />
      <line x1="-250" y1="-100" x2="-280" y2="100" class="graph-edge" />
      <line x1="70" y1="40" x2="-280" y2="100" class="graph-edge" />
      <line x1="70" y1="40" x2="-100" y2="250" class="graph-edge" />
      <line x1="-280" y1="100" x2="-100" y2="250" class="graph-edge" />
      
      <g id="AF20">
        <rect x="-100" y="-200" width="60" height="60" fill="#808080" stroke="black" stroke-width="2" rx="30" />
        <text x="-70" y="-170" text-anchor="middle" dominant-baseline="middle" fill="white" font-size="14">&lt;AF&gt;20</text>
      </g>
      <g id="AF16">
        <rect x="120" y="-280" width="60" height="60" fill="#808080" stroke="black" stroke-width="2" rx="30" />
        <text x="150" y="-250" text-anchor="middle" dominant-baseline="middle" fill="white" font-size="14">&lt;AF&gt;16</text>
      </g>
      <g id="AF21">
        <rect x="320" y="-130" width="60" height="60" fill="#808080" stroke="black" stroke-width="2" rx="30" />
        <text x="350" y="-100" text-anchor="middle" dominant-baseline="middle" fill="white" font-size="14">&lt;AF&gt;21</text>
      </g>
      <g id="AF14">
        <rect x="40" y="10" width="60" height="60" fill="#808080" stroke="black" stroke-width="2" rx="30" />
        <text x="70" y="40" text-anchor="middle" dominant-baseline="middle" fill="white" font-size="14">&lt;AF&gt;14</text>
      </g>
      <g id="AF18">
        <rect x="-280" y="-130" width="60" height="60" fill="#808080" stroke="black" stroke-width="2" rx="30" />
        <text x="-250" y="-100" text-anchor="middle" dominant-baseline="middle" fill="white" font-size="14">&lt;AF&gt;18</text>
      </g>
      <g id="AF22">
        <rect x="-310" y="70" width="60" height="60" fill="#808080" stroke="black" stroke-width="2" rx="30" />
        <text x="-280" y="100" text-anchor="middle" dominant-baseline="middle" fill="white" font-size="14">&lt;AF&gt;22</text>
      </g>
      <g id="AF15">
        <rect x="-130" y="220" width="60" height="60" fill="#808080" stroke="black" stroke-width="2" rx="30" />
        <text x="-100" y="250" text-anchor="middle" dominant-baseline="middle" fill="white" font-size="14">&lt;AF&gt;15</text>
      </g>
      
      <text x="170" y="-100" class="normal-text">kinship</text>
      <text x="170" y="-60" class="normal-text">≥ 0.177</text>
    </g>

    <!-- Sub Graph (Neighbor set) -->
    <g transform="translate(750, 850)">
      <path d="M -150 -100 C -50 -180, 150 -180, 250 -50 C 300 50, 200 180, 50 180 C -100 150, -200 50, -150 -100 Z" fill="white" stroke="#58799c" stroke-width="3" stroke-dasharray="10,10" />
      
      <line x1="-50" y1="-50" x2="50" y2="-80" class="graph-edge-light" />
      <line x1="-50" y1="-50" x2="-80" y2="50" class="graph-edge-light" />
      <line x1="50" y1="-80" x2="120" y2="0" class="graph-edge-light" />
      <line x1="-80" y1="50" x2="0" y2="80" class="graph-edge-light" />
      <line x1="0" y1="80" x2="120" y2="0" class="graph-edge-light" />
      <line x1="0" y1="80" x2="100" y2="100" class="graph-edge-light" />
      <line x1="120" y1="0" x2="150" y2="-50" class="graph-edge-light" />
      <line x1="-50" y1="-50" x2="0" y2="80" class="graph-edge-light" />
      
      <circle cx="-50" cy="-50" r="15" class="node-blue" />
      <circle cx="50" cy="-80" r="15" class="node-blue" />
      <circle cx="120" cy="0" r="15" class="node-blue" />
      <circle cx="-80" cy="50" r="15" class="node-blue" />
      <circle cx="0" cy="80" r="15" class="node-blue" />
      <circle cx="100" cy="100" r="15" class="node-blue" />
      <circle cx="150" cy="-50" r="15" class="node-blue" />
      
      <text x="30" y="160" text-anchor="middle" class="normal-text">Neighbor set <tspan class="math-text">N</tspan><tspan class="math-sub" dy="10">i</tspan></text>
    </g>

    <text x="50" y="1050" class="normal-text">Nodes: patients</text>
    <text x="50" y="1110" class="normal-text">Edges: first-degree relatives</text>
    <text x="50" y="1170" class="normal-text">Kinship coefficient ≥ 0.177</text>
  </g>

  <path d="M 3370 700 L 3430 700" class="connection-line-blue" marker-end="url(#arrow-blue)" />
  <path d="M 3370 1480 L 3430 1480" class="connection-line-blue" marker-end="url(#arrow-blue)" />

  <!-- Panel 4: Patient Graph Attention -->
  <g id="panel-patient-attention" transform="translate(3450, 180)">
    <rect x="0" y="0" width="1950" height="800" class="panel-bg-green" />
    <text x="975" y="70" text-anchor="middle" class="box-title">Patient Graph Attention</text>
    
    <rect x="1550" y="100" width="350" height="120" fill="white" stroke="black" stroke-width="2" rx="10" />
    <text x="1725" y="150" text-anchor="middle" class="math-text">h<tspan dy="-15">′</tspan><tspan dy="25">i</tspan> = ReLU<tspan font-size="60" dy="15">(</tspan><tspan font-size="48" dy="-10">∑</tspan><tspan font-family="Arial" font-size="18" dy="25" dx="-30">j∈N</tspan><tspan font-family="Arial" font-size="14" dy="5">i</tspan><tspan font-style="italic" font-size="36" dy="-25" dx="10">α<tspan dy="-15">′</tspan><tspan dy="25">ij</tspan>W<tspan dy="10">e</tspan><tspan dy="5">hj</tspan></tspan><tspan font-size="60" dy="10">)</tspan></text>
    
    <rect x="1650" y="240" width="250" height="60" fill="white" stroke="black" stroke-width="2" rx="10" />
    <text x="1775" y="280" text-anchor="middle" class="math-text">α<tspan dy="-15">′</tspan><tspan dy="25">ij</tspan> = softmax(e<tspan dy="-15">′</tspan><tspan dy="25">ij</tspan>)</text>

    <text x="250" y="250" text-anchor="middle" class="normal-text">Attention over</text>
    <text x="250" y="290" text-anchor="middle" class="normal-text">first-degree</text>
    <text x="250" y="330" text-anchor="middle" class="normal-text">relatives</text>
    
    <text x="1100" y="250" text-anchor="middle" class="normal-text">Relative importance</text>
    <text x="1100" y="290" text-anchor="middle" class="normal-text">score</text>

    <g id="AF22_2" transform="translate(150, 450)">
      <rect x="-40" y="-40" width="80" height="80" fill="#808080" stroke="black" stroke-width="2" rx="40" />
      <text x="0" y="0" text-anchor="middle" dominant-baseline="middle" fill="white" font-size="14">&lt;AF&gt;22</text>
    </g>
    
    <g id="AF16_2" transform="translate(550, 250)">
      <rect x="-40" y="-40" width="80" height="80" fill="#808080" stroke="black" stroke-width="2" rx="40" />
      <text x="0" y="0" text-anchor="middle" dominant-baseline="middle" fill="white" font-size="14">&lt;AF&gt;16</text>
    </g>
    <g id="AF19" transform="translate(550, 450)">
      <rect x="-40" y="-40" width="80" height="80" fill="#808080" stroke="black" stroke-width="2" rx="40" />
      <text x="0" y="0" text-anchor="middle" dominant-baseline="middle" fill="white" font-size="14">&lt;AF&gt;19</text>
    </g>
    <g id="AF17" transform="translate(550, 650)">
      <rect x="-40" y="-40" width="80" height="80" fill="#808080" stroke="black" stroke-width="2" rx="40" />
      <text x="0" y="0" text-anchor="middle" dominant-baseline="middle" fill="white" font-size="14">&lt;AF&gt;17</text>
    </g>
    
    <text x="150" y="620" text-anchor="middle" class="normal-text">patient</text>
    <text x="150" y="660" text-anchor="middle" class="normal-text">patients</text>
    
    <text x="550" y="550" text-anchor="middle" class="normal-text" font-weight="bold">⋮</text>
    
    <text x="550" y="750" text-anchor="middle" class="normal-text">relatives</text>
    
    <path d="M 210 420 L 490 280" class="connection-line" marker-end="url(#arrow)" />
    <path d="M 210 450 L 490 450" class="connection-line" marker-end="url(#arrow)" />
    <path d="M 210 480 L 490 620" class="connection-line" marker-end="url(#arrow)" />

    <!-- Scores -->
    <g transform="translate(750, 250)">
      <ellipse cx="0" cy="0" rx="40" ry="25" fill="#d3e3f0" stroke="black" stroke-width="2" />
      <text x="0" y="8" text-anchor="middle" class="small-text">score</text>
    </g>
    <g transform="translate(750, 450)">
      <ellipse cx="0" cy="0" rx="40" ry="25" fill="#d3e3f0" stroke="black" stroke-width="2" />
      <text x="0" y="8" text-anchor="middle" class="small-text">score</text>
    </g>
    <g transform="translate(750, 650)">
      <ellipse cx="0" cy="0" rx="40" ry="25" fill="#d3e3f0" stroke="black" stroke-width="2" />
      <text x="0" y="8" text-anchor="middle" class="small-text">score</text>
    </g>
    
    <path d="M 610 250 L 690 250" class="connection-line" marker-end="url(#arrow)" />
    <path d="M 610 450 L 690 450" class="connection-line" marker-end="url(#arrow)" />
    <path d="M 610 650 L 690 650" class="connection-line" marker-end="url(#arrow)" />
    
    <!-- Aggregation -->
    <rect x="1000" y="400" width="300" height="150" fill="#d3e3f0" stroke="black" stroke-width="2" rx="20" />
    <text x="1150" y="450" text-anchor="middle" class="box-title">∑</text>
    <text x="1150" y="490" text-anchor="middle" class="normal-text">relative feature</text>
    <text x="1150" y="530" text-anchor="middle" class="normal-text">aggregation</text>
    
    <path d="M 800 260 L 980 410" class="connection-line" marker-end="url(#arrow)" />
    <path d="M 800 450 L 980 450" class="connection-line" marker-end="url(#arrow)" />
    <path d="M 800 640 L 980 490" class="connection-line" marker-end="url(#arrow)" />
    
    <text x="1150" y="600" text-anchor="middle" class="normal-text">Weighted</text>
    <text x="1150" y="640" text-anchor="middle" class="normal-text">aggregation</text>

    <!-- Final representation -->
    <path d="M 1320 475 L 1480 475" class="connection-line" marker-end="url(#arrow)" />
    
    <g transform="translate(1500, 450)">
      <rect x="0" y="0" width="50" height="50" class="feature-box-blue" />
      <rect x="50" y="0" width="50" height="50" class="feature-box-green" />
      <rect x="100" y="0" width="50" height="50" class="feature-box-green" />
      <rect x="150" y="0" width="50" height="50" class="feature-box-orange" />
      <rect x="200" y="0" width="50" height="50" class="feature-box-orange" />
      <text x="125" y="90" text-anchor="middle" class="math-text">h<tspan dy="-15">′</tspan><tspan dy="25">i</tspan></text>
      
      <text x="125" y="160" text-anchor="middle" class="normal-text">Final patient</text>
      <text x="125" y="200" text-anchor="middle" class="normal-text">representation <tspan class="math-text">h</tspan><tspan class="math-sub" dy="-10">′</tspan><tspan class="math-sub" dy="20">i</tspan></text>
    </g>
    
    <path d="M 160 510 L 160 750 L 1150 750 L 1150 570" class="connection-line-blue" marker-end="url(#arrow-blue)" />
  </g>

  <!-- Panel 5: Ontology Graph -->
  <g id="panel-ontology-graph" transform="translate(1180, 1480)">
    <rect x="0" y="0" width="1050" height="950" class="panel-bg-green" />
    <text x="525" y="70" text-anchor="middle" class="box-title">Ontology Graph</text>
    
    <line x1="50" y1="360" x2="1000" y2="360" class="dashed-line" />
    <line x1="50" y1="560" x2="1000" y2="560" class="dashed-line" />
    <line x1="50" y1="760" x2="1000" y2="760" class="dashed-line" />
    
    <text x="150" y="240" text-anchor="middle" class="normal-text">general</text>
    <text x="150" y="280" text-anchor="middle" class="normal-text">concepts</text>
    
    <text x="150" y="440" text-anchor="middle" class="normal-text">specific</text>
    <text x="150" y="480" text-anchor="middle" class="normal-text">concepts</text>
    
    <text x="150" y="640" text-anchor="middle" class="normal-text">diagnosis</text>
    <text x="150" y="680" text-anchor="middle" class="normal-text">codes</text>
    
    <text x="850" y="240" text-anchor="middle" class="normal-text">Directed</text>
    <text x="850" y="280" text-anchor="middle" class="normal-text">acyclic graph</text>
    
    <text x="850" y="440" text-anchor="middle" class="normal-text">parent-child</text>
    <text x="850" y="480" text-anchor="middle" class="normal-text">hierarchy</text>
    
    <text x="850" y="640" text-anchor="middle" class="normal-text">diagnosis</text>
    <text x="850" y="680" text-anchor="middle" class="normal-text">codes</text>

    <!-- Ontology Nodes -->
    <g transform="translate(500, 150)">
      <circle cx="0" cy="50" r="30" class="node-blue" />
      
      <circle cx="-150" cy="250" r="30" class="node-blue" />
      <circle cx="150" cy="250" r="30" class="node-blue" />
      
      <circle cx="-250" cy="450" r="30" class="node-orange" />
      <circle cx="-100" cy="450" r="30" class="node-orange" />
      <circle cx="100" cy="450" r="30" class="node-green" />
      <circle cx="250" cy="450" r="30" class="node-green" />
      
      <path d="M -20 70 L -130 230" class="graph-edge" marker-end="url(#arrow-black)" />
      <path d="M 20 70 L 130 230" class="graph-edge" marker-end="url(#arrow-black)" />
      
      <path d="M -160 280 L -240 420" class="graph-edge" marker-end="url(#arrow-black)" />
      <path d="M -140 280 L -110 420" class="graph-edge" marker-end="url(#arrow-black)" />
      
      <path d="M 140 280 L 110 420" class="graph-edge" marker-end="url(#arrow-black)" />
      <path d="M 160 280 L 240 420" class="graph-edge" marker-end="url(#arrow-black)" />
      
      <path d="M -120 270 L 80 430" class="graph-edge" marker-end="url(#arrow-black)" />
      
      <!-- Embeddings -->
      <g transform="translate(350, 430)">
        <rect x="0" y="0" width="30" height="40" class="feature-box-blue" />
        <rect x="30" y="0" width="30" height="40" class="feature-box-blue" />
        <rect x="60" y="0" width="30" height="40" class="feature-box-orange" />
        <rect x="90" y="0" width="30" height="40" class="feature-box-orange" />
        
        <text x="60" y="80" text-anchor="middle" class="normal-text">basic</text>
        <text x="60" y="120" text-anchor="middle" class="normal-text">embeddings <tspan class="math-text">e</tspan><tspan class="math-sub" dy="10">i</tspan></text>
      </g>
      
      <path d="M -230 475 C -100 550, 200 550, 340 460" class="graph-edge" marker-end="url(#arrow-black)" />
      <path d="M -80 475 C 0 520, 200 520, 340 455" class="graph-edge" marker-end="url(#arrow-black)" />
      <path d="M 120 475 C 180 500, 250 500, 340 450" class="graph-edge" marker-end="url(#arrow-black)" />
      <path d="M 280 460 C 300 465, 320 465, 340 445" class="graph-edge" marker-end="url(#arrow-black)" />
      
      <text x="-150" y="650" text-anchor="middle" class="normal-text">diagnosis</text>
      <text x="-150" y="690" text-anchor="middle" class="normal-text">codes</text>
      <path d="M -150 610 L -230 500" class="connection-line" marker-end="url(#arrow)" />
      <path d="M -150 610 L -110 500" class="connection-line" marker-end="url(#arrow)" />
      
      <text x="50" y="650" text-anchor="middle" class="normal-text">Ancestor</text>
      <text x="50" y="690" text-anchor="middle" class="normal-text">set <tspan class="math-text">A</tspan>(<tspan class="math-text">i</tspan>)</text>
      <path d="M 50 610 C 100 550, 200 550, 280 500" class="connection-line" marker-end="url(#arrow)" />
    </g>
  </g>

  <path d="M 2250 1950 L 2330 1950" class="connection-line-green" marker-end="url(#arrow-green)" />

  <!-- Panel 6: Ontology Attention -->
  <g id="panel-ontology-attention" transform="translate(2350, 1480)">
    <rect x="0" y="0" width="1150" height="950" class="panel-bg-green" />
    <text x="575" y="70" text-anchor="middle" class="box-title">Ontology Attention</text>
    
    <g transform="translate(300, 250)">
      <circle cx="0" cy="0" r="40" class="node-blue" />
      
      <circle cx="-150" cy="200" r="40" class="node-blue" />
      <circle cx="0" cy="200" r="40" class="node-blue" />
      <circle cx="150" cy="200" r="40" class="node-blue" />
      
      <circle cx="-150" cy="400" r="40" class="node-green" />
      <circle cx="0" cy="400" r="40" class="node-green" />
      
      <path d="M -25 35 L -130 170" class="graph-edge" marker-end="url(#arrow-black)" />
      <path d="M 0 45 L 0 155" class="graph-edge" marker-end="url(#arrow-black)" />
      <path d="M 25 35 L 130 170" class="graph-edge" marker-end="url(#arrow-black)" />
      
      <path d="M -150 245 L -150 355" class="graph-edge" marker-end="url(#arrow-black)" />
      <path d="M 0 245 L -120 370" class="graph-edge" marker-end="url(#arrow-black)" />
      <path d="M 0 245 L 0 355" class="graph-edge" marker-end="url(#arrow-black)" />
      <path d="M 150 245 L 20 370" class="graph-edge" marker-end="url(#arrow-black)" />
      
      <text x="-75" y="400" text-anchor="middle" class="normal-text" font-weight="bold">⋯</text>
      
      <text x="30" y="110" class="math-text">α<tspan class="math-sub" dy="10">ii</tspan></text>
      <text x="100" y="100" class="math-text">w<tspan class="math-sub" dy="10">ij</tspan></text>
      <text x="70" y="300" class="math-text">w<tspan class="math-sub" dy="10">ij</tspan></text>

      <path d="M 45 0 C 150 0, 150 200, 300 200" class="connection-line" marker-end="url(#arrow)" />
      <path d="M 45 200 L 300 200" class="connection-line" marker-end="url(#arrow)" />
      <path d="M 190 200 L 300 200" class="connection-line" marker-end="url(#arrow)" />
      <path d="M 45 400 C 150 400, 150 200, 300 200" class="connection-line" marker-end="url(#arrow)" />
      
      <text x="180" y="300" text-anchor="middle" class="normal-text" font-weight="bold">⋮</text>
      <text x="210" y="280" text-anchor="middle" class="normal-text" font-weight="bold">⋯</text>
      
      <text x="250" y="-50" class="normal-text">Attention over</text>
      <text x="250" y="-10" class="normal-text">code ancestors</text>
      
      <g id="AF06">
        <rect x="320" y="125" width="150" height="150" fill="#808080" stroke="black" stroke-width="2"/>
        <text x="395" y="200" text-anchor="middle" dominant-baseline="middle" fill="white" font-size="28">&lt;AF&gt;06</text>
      </g>
      <text x="395" y="320" text-anchor="middle" class="normal-text">ancestor</text>
      <text x="395" y="360" text-anchor="middle" class="normal-text">aggregation</text>
      
      <path d="M 480 200 L 580 200" class="connection-line" marker-end="url(#arrow)" />
      <text x="530" y="160" text-anchor="middle" class="math-text">g<tspan class="math-sub" dy="10">i</tspan></text>
      
      <g transform="translate(600, 175)">
        <rect x="0" y="0" width="30" height="50" class="feature-box-blue" />
        <rect x="30" y="0" width="30" height="50" class="feature-box-blue" />
        <rect x="60" y="0" width="30" height="50" class="feature-box-orange" />
        <rect x="90" y="0" width="30" height="50" class="feature-box-orange" />
        
        <text x="60" y="100" text-anchor="middle" class="normal-text">Final code</text>
        <text x="60" y="140" text-anchor="middle" class="normal-text">representation</text>
      </g>
    </g>
    
    <text x="50" y="800" class="normal-text">Convex combination</text>
    <text x="50" y="850" class="normal-text">Ontology-aware</text>
    <text x="50" y="900" class="normal-text">code representation</text>
    
    <rect x="550" y="720" width="550" height="100" fill="white" stroke="black" stroke-width="2" rx="10" />
    <text x="825" y="780" text-anchor="middle" class="math-text">g<tspan class="math-sub" dy="10">i</tspan><tspan dy="-10"> = </tspan><tspan font-size="60" dy="10">∑</tspan><tspan font-family="Arial" font-size="18" dy="25" dx="-35">j∈A(i)</tspan><tspan font-style="italic" font-size="36" dy="-25" dx="10">α<tspan class="math-sub" dy="10">ij</tspan><tspan dy="-10">e</tspan><tspan class="math-sub" dy="10">j</tspan></tspan></text>
    
    <rect x="550" y="840" width="550" height="70" fill="white" stroke="black" stroke-width="2" rx="10" />
    <text x="825" y="890" text-anchor="middle" class="math-text">α<tspan class="math-sub" dy="10">ij</tspan><tspan dy="-10"> = softmax(f(e</tspan><tspan class="math-sub" dy="10">i</tspan><tspan dy="-10">, e</tspan><tspan class="math-sub" dy="10">j</tspan><tspan dy="-10">))</tspan></text>
  </g>

  <!-- Panel 7: Visit Representation -->
  <g id="panel-visit-rep" transform="translate(3520, 1080)">
    <rect x="0" y="0" width="950" height="1350" class="panel-bg-blue" />
    <text x="475" y="70" text-anchor="middle" class="box-title">Visit Representation</text>
    
    <text x="180" y="160" text-anchor="middle" class="normal-text">Patient</text>
    <text x="180" y="200" text-anchor="middle" class="normal-text">representation <tspan class="math-text">h</tspan><tspan class="math-sub" dy="-10">′</tspan><tspan class="math-sub" dy="20">i</tspan></text>
    
    <g id="AF26">
      <rect x="80" y="240" width="200" height="150" fill="#808080" stroke="black" stroke-width="2"/>
      <text x="180" y="315" text-anchor="middle" dominant-baseline="middle" fill="white" font-size="28">&lt;AF&gt;26</text>
    </g>
    
    <path d="M 280 315 L 430 315 L 430 400 L 530 400" class="connection-line" marker-end="url(#arrow)" />
    
    <text x="180" y="450" text-anchor="middle" class="normal-text">Integrate</text>
    <text x="180" y="490" text-anchor="middle" class="normal-text">ontology</text>
    <text x="180" y="530" text-anchor="middle" class="normal-text">hierarchy</text>
    
    <text x="180" y="610" text-anchor="middle" class="normal-text">Ontology</text>
    <text x="180" y="650" text-anchor="middle" class="normal-text">representation</text>
    <text x="180" y="690" text-anchor="middle" class="math-text">g<tspan class="math-sub" dy="10">i</tspan></text>
    
    <g id="AF25">
      <rect x="80" y="730" width="200" height="250" fill="#808080" stroke="black" stroke-width="2"/>
      <text x="180" y="855" text-anchor="middle" dominant-baseline="middle" fill="white" font-size="36">&lt;AF&gt;25</text>
    </g>
    
    <path d="M 280 855 C 400 855, 450 700, 480 600" class="connection-line" marker-end="url(#arrow)" />
    
    <text x="180" y="1050" text-anchor="middle" class="normal-text">Demographic</text>
    <text x="180" y="1090" text-anchor="middle" class="normal-text">embedding</text>
    
    <path d="M 180 1120 L 180 1200 L 380 1200" class="connection-line" marker-end="url(#arrow)" />
    
    <!-- Integration nodes -->
    <path d="M 530 350 L 630 430 L 530 510 Z" fill="#d3e3f0" stroke="black" stroke-width="4" />
    <path d="M 460 550 C 460 500, 500 470, 530 470" class="connection-line" marker-end="url(#arrow)" />
    
    <g id="AF07">
      <rect x="680" y="240" width="100" height="350" fill="#808080" stroke="black" stroke-width="2"/>
      <text x="730" y="415" text-anchor="middle" dominant-baseline="middle" fill="white" font-size="28">&lt;AF&gt;07</text>
    </g>
    <path d="M 630 430 L 680 430" class="connection-line" marker-end="url(#arrow)" />
    
    <path d="M 780 430 L 850 430" class="connection-line" />
    
    <text x="730" y="650" text-anchor="middle" class="normal-text">Integrate genetic-relative</text>
    <text x="730" y="690" text-anchor="middle" class="normal-text">information</text>
  </g>

  <!-- Panel 8: LSTM Prediction Layer -->
  <g id="panel-lstm" transform="translate(4500, 1080)">
    <rect x="0" y="0" width="1050" height="750" class="panel-bg-blue" />
    <text x="525" y="70" text-anchor="middle" class="box-title">LSTM Prediction Layer</text>
    
    <path d="M -50 430 L 0 430" class="connection-line" />
    
    <g transform="translate(0, 380)">
      <rect x="20" y="0" width="100" height="100" fill="#d3e3f0" stroke="black" stroke-width="4" rx="20" />
      <path d="M 40 20 L 100 80" stroke="black" stroke-width="4" />
      <path d="M 100 20 L 40 80" stroke="black" stroke-width="4" />
      <path d="M 30 50 C 60 20, 80 80, 110 50" stroke="black" stroke-width="4" fill="none" />
      <text x="70" y="140" text-anchor="middle" class="normal-text">Fusion</text>
    </g>

    <g id="AF13">
      <rect x="180" y="240" width="100" height="350" fill="#808080" stroke="black" stroke-width="2"/>
      <text x="230" y="415" text-anchor="middle" dominant-baseline="middle" fill="white" font-size="28">&lt;AF&gt;13</text>
    </g>
    <path d="M 120 430 L 180 430" class="connection-line" marker-end="url(#arrow)" />
    
    <path d="M 280 430 L 450 430" class="connection-line" marker-end="url(#arrow)" />
    
    <text x="360" y="350" text-anchor="middle" class="normal-text">Use visit</text>
    <text x="360" y="390" text-anchor="middle" class="normal-text">history up</text>
    <text x="360" y="430" text-anchor="middle" class="normal-text">to <tspan class="math-text">t</tspan></text>
    
    <g transform="translate(500, 200)">
      <rect x="40" y="40" width="400" height="250" fill="white" stroke="black" stroke-width="2" rx="10" />
      <rect x="20" y="20" width="400" height="250" fill="white" stroke="black" stroke-width="2" rx="10" />
      <g id="AF09">
        <rect x="0" y="0" width="400" height="250" fill="#808080" stroke="black" stroke-width="2"/>
        <text x="200" y="125" text-anchor="middle" dominant-baseline="middle" fill="white" font-size="36">&lt;AF&gt;09</text>
      </g>
    </g>
    
    <text x="700" y="650" text-anchor="middle" class="normal-text">Visit representation <tspan class="math-text">v</tspan><tspan class="math-sub" dy="10">t</tspan></text>
    <text x="700" y="690" text-anchor="middle" class="normal-text">for each visit <tspan class="math-text">t</tspan></text>
  </g>

  <!-- Panel 9: LSTM Sequence -->
  <g id="panel-lstm-seq" transform="translate(4050, 1850)">
    <rect x="0" y="0" width="1500" height="580" class="panel-bg-blue" />
    <text x="750" y="70" text-anchor="middle" class="box-title">LSTM Prediction Layer</text>
    
    <rect x="50" y="150" width="1400" height="400" fill="white" stroke="#58799c" stroke-width="4" rx="20" />
    
    <text x="350" y="220" class="math-text">Y<tspan class="math-sub" dy="10">t+1</tspan><tspan dy="-10"> ← LSTM(v</tspan><tspan class="math-sub" dy="10">1</tspan><tspan dy="-10">, v</tspan><tspan class="math-sub" dy="10">2</tspan><tspan dy="-10">, ..., v</tspan><tspan class="math-sub" dy="10">t</tspan><tspan dy="-10">)</tspan></text>
    
    <path d="M -150 -50 L -150 350 L 50 350" class="connection-line" marker-end="url(#arrow)" />
    
    <!-- LSTM Chain -->
    <g transform="translate(150, 300)">
      <rect x="0" y="0" width="150" height="80" class="lstm-box" />
      <text x="75" y="50" text-anchor="middle" class="box-title">LSTM</text>
      <text x="75" y="140" text-anchor="middle" class="math-text">v<tspan class="math-sub" dy="10">1</tspan></text>
      <path d="M 75 100 L 75 80" class="connection-line" marker-end="url(#arrow)" />
      
      <path d="M 150 40 L 250 40" class="connection-line" marker-end="url(#arrow)" />
      
      <rect x="250" y="0" width="150" height="80" class="lstm-box" />
      <text x="325" y="50" text-anchor="middle" class="box-title">LSTM</text>
      <text x="325" y="140" text-anchor="middle" class="math-text">v<tspan class="math-sub" dy="10">2</tspan></text>
      <path d="M 325 100 L 325 80" class="connection-line" marker-end="url(#arrow)" />
      
      <path d="M 400 40 L 450 40" class="connection-line" />
      <text x="500" y="50" text-anchor="middle" class="box-title">⋯</text>
      <path d="M 550 40 L 600 40" class="connection-line" marker-end="url(#arrow)" />
      
      <rect x="600" y="0" width="150" height="80" class="lstm-box" />
      <text x="675" y="50" text-anchor="middle" class="box-title">LSTM</text>
      <text x="675" y="140" text-anchor="middle" class="math-text">v<tspan class="math-sub" dy="10">t</tspan></text>
      <path d="M 675 100 L 675 80" class="connection-line" marker-end="url(#arrow)" />
      
      <path d="M 750 40 L 850 40" class="connection-line" marker-end="url(#arrow)" />
      
      <!-- Prediction Output -->
      <g transform="translate(850, -40)">
        <rect x="0" y="0" width="400" height="160" fill="#e2efdf" stroke="black" stroke-width="4" rx="10" />
        <text x="200" y="50" text-anchor="middle" class="normal-text">Predicted <tspan class="math-text">Y</tspan><tspan class="math-sub" dy="10">t+1</tspan></text>
        
        <rect x="50" y="80" width="300" height="20" fill="url(#disease-risk-grad)" stroke="black" stroke-width="2" />
        <line x1="200" y1="70" x2="200" y2="110" stroke="black" stroke-width="4" />
        
        <text x="200" y="140" text-anchor="middle" class="small-text">Disease risk at</text>
        <text x="200" y="180" text-anchor="middle" class="small-text">next visit</text>
      </g>
    </g>
    
    <text x="300" y="510" text-anchor="middle" class="normal-text">Use visit history up to <tspan class="math-text">t</tspan></text>
    <text x="825" y="510" text-anchor="middle" class="normal-text">Predict next visit</text>
    <text x="1200" y="510" text-anchor="middle" class="normal-text">Output: <tspan class="math-text">Y</tspan><tspan class="math-sub" dy="10">t+1</tspan></text>
  </g>

  <!-- Bottom Panel: Experimental Setting -->
  <line x1="50" y1="2500" x2="5582" y2="2500" class="dashed-line" stroke="#58799c" />
  
  <g id="panel-experimental" transform="translate(50, 2550)">
    <rect x="0" y="0" width="5500" height="450" class="panel-bg-gray" />
    
    <g transform="translate(50, 225) rotate(-90)">
      <text x="0" y="0" text-anchor="middle" class="box-title">Experimental</text>
      <text x="0" y="50" text-anchor="middle" class="box-title">Setting</text>
    </g>
    
    <line x1="150" y1="50" x2="150" y2="400" stroke="#cccccc" stroke-width="4" />
    
    <!-- Dataset -->
    <g transform="translate(200, 50)">
      <text x="250" y="50" text-anchor="middle" class="normal-text" font-weight="bold">Dataset</text>
      <g id="AF05">
        <rect x="0" y="100" width="100" height="100" fill="#808080" stroke="black" stroke-width="2"/>
        <text x="50" y="150" text-anchor="middle" dominant-baseline="middle" fill="white" font-size="14">&lt;AF&gt;05</text>
      </g>
      <circle cx="130" cy="120" r="5" fill="black" />
      <text x="150" y="130" class="small-text">206,831 participants</text>
      <text x="150" y="170" class="small-text">with EHR + genetic data</text>
      <circle cx="130" cy="210" r="5" fill="black" />
      <text x="150" y="220" class="small-text">22,364 participants with</text>
      <text x="150" y="260" class="small-text">first-degree relatives</text>
    </g>
    
    <!-- Task -->
    <g transform="translate(850, 50)">
      <text x="250" y="50" text-anchor="middle" class="normal-text" font-weight="bold">Task</text>
      <g id="AF12">
        <rect x="0" y="100" width="100" height="100" fill="#808080" stroke="black" stroke-width="2"/>
        <text x="50" y="150" text-anchor="middle" dominant-baseline="middle" fill="white" font-size="14">&lt;AF&gt;12</text>
      </g>
      <circle cx="130" cy="120" r="5" fill="black" />
      <text x="150" y="130" class="small-text">118 disease-code prediction</text>
      <text x="150" y="170" class="small-text">models</text>
      <circle cx="130" cy="210" r="5" fill="black" />
      <text x="150" y="220" class="small-text">Next-visit disease onset</text>
      <circle cx="130" cy="260" r="5" fill="black" />
      <text x="150" y="270" class="small-text">Binary classification</text>
    </g>
    
    <!-- Disease-category -->
    <g transform="translate(1550, 50)">
      <text x="200" y="50" text-anchor="middle" class="normal-text" font-weight="bold">Disease-category</text>
      <g id="AF01">
        <rect x="0" y="100" width="100" height="100" fill="#808080" stroke="black" stroke-width="2"/>
        <text x="50" y="150" text-anchor="middle" dominant-baseline="middle" fill="white" font-size="14">&lt;AF&gt;01</text>
      </g>
      <text x="120" y="150" class="small-text">10 ICD coding</text>
      <text x="120" y="190" class="small-text">categories</text>
    </g>
    
    <!-- Cohort-rule -->
    <g transform="translate(2100, 50)">
      <text x="200" y="50" text-anchor="middle" class="normal-text" font-weight="bold">Cohort-rule</text>
      <g id="AF11">
        <rect x="0" y="100" width="100" height="100" fill="#808080" stroke="black" stroke-width="2"/>
        <text x="50" y="150" text-anchor="middle" dominant-baseline="middle" fill="white" font-size="14">&lt;AF&gt;11</text>
      </g>
      <text x="120" y="130" class="small-text">Exclude patients</text>
      <text x="120" y="170" class="small-text">diagnosed within</text>
      <text x="120" y="210" class="small-text">first two clinical visits</text>
    </g>
    
    <!-- Split bar -->
    <g transform="translate(2700, 50)">
      <text x="300" y="50" text-anchor="middle" class="normal-text" font-weight="bold">Split bar</text>
      <rect x="0" y="100" width="600" height="50" fill="url(#split-bar-grad)" stroke="black" stroke-width="3" rx="10" />
      <line x1="420" y1="100" x2="420" y2="150" stroke="black" stroke-width="3" />
      <line x1="480" y1="100" x2="480" y2="150" stroke="black" stroke-width="3" />
      <text x="300" y="200" text-anchor="middle" class="small-text">70% training / 10% validation /</text>
      <text x="300" y="240" text-anchor="middle" class="small-text">20% testing</text>
    </g>
    
    <!-- Validation -->
    <g transform="translate(3500, 50)">
      <text x="200" y="50" text-anchor="middle" class="normal-text" font-weight="bold">Validation</text>
      <g id="AF10">
        <rect x="0" y="100" width="100" height="100" fill="#808080" stroke="black" stroke-width="2"/>
        <text x="50" y="150" text-anchor="middle" dominant-baseline="middle" fill="white" font-size="14">&lt;AF&gt;10</text>
      </g>
      <text x="120" y="150" class="small-text">Best validation model</text>
      <text x="120" y="190" class="small-text">evaluated on test data</text>
    </g>
    
    <!-- Cross-validation -->
    <g transform="translate(4100, 50)">
      <text x="200" y="50" text-anchor="middle" class="normal-text" font-weight="bold">Cross-validation</text>
      <g id="AF04">
        <rect x="0" y="100" width="100" height="100" fill="#808080" stroke="black" stroke-width="2"/>
        <text x="50" y="150" text-anchor="middle" dominant-baseline="middle" fill="white" font-size="14">&lt;AF&gt;04</text>
      </g>
      <text x="120" y="150" class="small-text">3-fold cross</text>
      <text x="120" y="190" class="small-text">validation</text>
    </g>
    
    <!-- Metric badges -->
    <g transform="translate(4650, 50)">
      <text x="200" y="50" text-anchor="middle" class="normal-text" font-weight="bold">Metric badges</text>
      <rect x="0" y="100" width="120" height="50" class="badge-auc" />
      <text x="60" y="135" text-anchor="middle" class="small-text">AUC</text>
      
      <rect x="150" y="100" width="180" height="50" class="badge-precision" />
      <text x="240" y="135" text-anchor="middle" class="small-text">Precision</text>
      
      <rect x="0" y="180" width="140" height="50" class="badge-recall" />
      <text x="70" y="215" text-anchor="middle" class="small-text">Recall</text>
      
      <rect x="170" y="180" width="160" height="50" class="badge-f1" />
      <text x="250" y="215" text-anchor="middle" class="small-text">F1 score</text>
    </g>
  </g>

</svg>