<svg xmlns="http://www.w3.org/2000/svg" viewBox="0 0 5632 3072" width="5632" height="3072">
  <defs>
    <marker id="arrowhead" markerWidth="10" markerHeight="7" refX="9" refY="3.5" orient="auto">
      <polygon points="0 0, 10 3.5, 0 7" fill="black" />
    </marker>
    <marker id="arrowhead-dashed" markerWidth="10" markerHeight="7" refX="9" refY="3.5" orient="auto">
      <polygon points="0 0, 10 3.5, 0 7" fill="black" />
    </marker>
    <style>
      .bg-gray { fill: #f0f4f8; }
      .panel-bg { fill: #e6edf4; rx: 30; }
      .panel-bg-light { fill: #f8fafd; rx: 30; }
      .panel-bg-dark { fill: #d9e6f2; rx: 30; }
      .border-box { fill: #f8fafd; stroke: black; stroke-width: 3; rx: 30; }
      .border-box-blue { fill: #e6edf4; stroke: black; stroke-width: 3; rx: 30; }
      .border-box-dashed { fill: #f8fafd; stroke: black; stroke-width: 3; stroke-dasharray: 10,10; rx: 30; }
      .title-text { font-family: sans-serif; font-weight: bold; font-size: 110px; }
      .heading-text { font-family: sans-serif; font-weight: bold; font-size: 65px; }
      .subheading-text { font-family: sans-serif; font-weight: bold; font-size: 55px; }
      .body-text { font-family: sans-serif; font-size: 45px; }
      .body-text-bold { font-family: sans-serif; font-weight: bold; font-size: 45px; }
      .small-text { font-family: sans-serif; font-size: 35px; }
      .math-text { font-family: serif; font-style: italic; font-size: 50px; }
      .math-text-bold { font-family: serif; font-weight: bold; font-style: italic; font-size: 50px; }
      .node-circle { stroke: black; stroke-width: 4; }
      .node-blue { fill: #a3b8d7; }
      .node-orange { fill: #f5c78a; }
      .node-green { fill: #a5c79e; }
      .node-purple { fill: #bfa3d7; }
      .node-light-blue { fill: #d9e6f2; }
      .node-light-green { fill: #d9f2d9; }
      .node-light-orange { fill: #f2e6d9; }
      .edge-line { stroke: black; stroke-width: 4; }
      .edge-dashed { stroke: black; stroke-width: 4; stroke-dasharray: 10,10; }
      .placeholder-rect { fill: #808080; stroke: black; stroke-width: 2; }
      .placeholder-text { fill: white; font-family: sans-serif; font-size: 30px; font-weight: bold; text-anchor: middle; dominant-baseline: middle; }
    </style>
  </defs>

  <!-- Main Background -->
  <rect width="5632" height="3072" class="bg-gray" />

  <!-- Top Title Area -->
  <rect x="0" y="0" width="5632" height="250" fill="#d9e6f2" />
  <text x="2816" y="160" text-anchor="middle" class="title-text">ALIGATEHR-Gen: Method Figure</text>

  <!-- Top Corner Icons Placeholders -->
  <g id="AF14">
    <rect x="40" y="20" width="200" height="350" class="placeholder-rect" />
    <text x="140" y="195" class="placeholder-text">&lt;AF&gt;14</text>
  </g>
  <g id="AF13">
    <rect x="5392" y="20" width="200" height="350" class="placeholder-rect" />
    <text x="5492" y="195" class="placeholder-text">&lt;AF&gt;13</text>
  </g>

  <!-- Panel 1: Data Processing -->
  <rect x="30" y="290" width="1940" height="2360" class="panel-bg" />
  <g id="AF11">
    <rect x="540" y="320" width="80" height="80" class="placeholder-rect" rx="40" />
    <text x="580" y="360" class="placeholder-text">&lt;AF&gt;11</text>
  </g>
  <text x="650" y="380" class="heading-text">Data Processing</text>

  <!-- UK Biobank Data Box -->
  <rect x="70" y="520" width="1250" height="2100" class="border-box-blue" />
  <text x="695" y="600" text-anchor="middle" class="subheading-text">UK Biobank Data</text>

  <!-- De-identified EHR data sub-box -->
  <rect x="110" y="660" width="750" height="800" class="border-box" />
  <g id="AF07">
    <rect x="180" y="730" width="220" height="220" class="placeholder-rect" />
    <text x="290" y="840" class="placeholder-text">&lt;AF&gt;07</text>
  </g>
  <g id="AF05">
    <rect x="480" y="730" width="220" height="220" class="placeholder-rect" />
    <text x="590" y="840" class="placeholder-text">&lt;AF&gt;05</text>
  </g>
  <text x="485" y="1020" text-anchor="middle" class="subheading-text">De-identified EHR data</text>
  <circle cx="150" cy="1120" r="8" fill="black" />
  <text x="180" y="1130" class="body-text">Primary care and hospital</text>
  <text x="180" y="1190" class="body-text">inpatient diagnosis history</text>
  <circle cx="150" cy="1280" r="8" fill="black" />
  <text x="180" y="1290" class="body-text">Longitudinal clinical</text>
  <text x="180" y="1350" class="body-text">visits</text>
  <circle cx="150" cy="1440" r="8" fill="black" />
  <text x="180" y="1450" class="body-text">ICD diagnosis codes</text>

  <!-- Genetic data sub-box -->
  <rect x="110" y="1520" width="750" height="700" class="border-box" />
  <g id="AF06">
    <rect x="180" y="1590" width="220" height="220" class="placeholder-rect" />
    <text x="290" y="1700" class="placeholder-text">&lt;AF&gt;06</text>
  </g>
  <g id="AF03">
    <rect x="480" y="1590" width="220" height="220" class="placeholder-rect" />
    <text x="590" y="1700" class="placeholder-text">&lt;AF&gt;03</text>
  </g>
  <text x="485" y="1880" text-anchor="middle" class="subheading-text">Genetic data</text>
  <circle cx="150" cy="1980" r="8" fill="black" />
  <text x="180" y="1990" class="body-text">genome-wide SNP data</text>
  <circle cx="150" cy="2070" r="8" fill="black" />
  <text x="180" y="2080" class="body-text">kinship coefficients</text>
  <circle cx="150" cy="2160" r="8" fill="black" />
  <text x="180" y="2170" class="body-text">genetically inferred</text>
  <text x="180" y="2230" class="body-text">relatives</text>

  <!-- Funnels and Participant counts -->
  <text x="1100" y="700" text-anchor="middle" class="body-text">>500,000+</text>
  <text x="1100" y="760" text-anchor="middle" class="body-text">UKB</text>
  <text x="1100" y="820" text-anchor="middle" class="body-text">participants</text>
  <g id="AF10">
    <rect x="950" y="860" width="300" height="300" class="placeholder-rect" />
    <text x="1100" y="1010" class="placeholder-text">&lt;AF&gt;10</text>
  </g>
  <text x="1100" y="1230" text-anchor="middle" class="body-text">22,364</text>
  <text x="1100" y="1290" text-anchor="middle" class="body-text">participants</text>
  <text x="1100" y="1350" text-anchor="middle" class="body-text">to filtern</text>
  
  <text x="1100" y="1480" text-anchor="middle" class="body-text">12,364</text>
  <g id="AF09">
    <rect x="950" y="1520" width="300" height="300" class="placeholder-rect" />
    <text x="1100" y="1670" class="placeholder-text">&lt;AF&gt;09</text>
  </g>
  <line x1="1100" y1="1840" x2="1100" y2="1920" class="edge-line" marker-end="url(#arrowhead)" />
  <text x="1100" y="1980" text-anchor="middle" class="body-text">22,364</text>
  <text x="1100" y="2040" text-anchor="middle" class="body-text">participants</text>
  <text x="1100" y="2100" text-anchor="middle" class="body-text">first-degree</text>
  <text x="1100" y="2160" text-anchor="middle" class="body-text">relatives</text>

  <!-- Clinical feature stream box -->
  <rect x="1370" y="520" width="570" height="1100" class="panel-bg-dark" />
  <text x="1655" y="600" text-anchor="middle" class="subheading-text">Clinical feature</text>
  <text x="1655" y="670" text-anchor="middle" class="subheading-text">stream</text>
  
  <rect x="1400" y="730" width="510" height="70" class="panel-bg-light" />
  <text x="1655" y="780" text-anchor="middle" class="body-text">Patient visit history</text>
  
  <rect x="1400" y="830" width="510" height="70" class="panel-bg-light" />
  <text x="1655" y="880" text-anchor="middle" class="body-text">ICD code sequence</text>
  
  <rect x="1400" y="930" width="510" height="70" class="panel-bg-light" />
  <text x="1655" y="980" text-anchor="middle" class="body-text">Disease-status vector</text>
  
  <rect x="1400" y="1030" width="510" height="70" class="panel-bg-light" />
  <text x="1655" y="1080" text-anchor="middle" class="body-text">Age embedding</text>
  
  <rect x="1400" y="1130" width="510" height="70" class="panel-bg-light" />
  <text x="1655" y="1180" text-anchor="middle" class="body-text">Sex embedding</text>

  <g id="AF16">
    <rect x="1500" y="1250" width="310" height="310" class="placeholder-rect" />
    <text x="1655" y="1405" class="placeholder-text">&lt;AF&gt;16</text>
  </g>

  <!-- Genetic relationship stream box -->
  <rect x="1370" y="1650" width="570" height="700" class="panel-bg-dark" />
  <text x="1655" y="1730" text-anchor="middle" class="subheading-text">Genetic</text>
  <text x="1655" y="1800" text-anchor="middle" class="subheading-text">relationship</text>
  <text x="1655" y="1870" text-anchor="middle" class="subheading-text">stream</text>

  <g id="AF15">
    <rect x="1500" y="1930" width="120" height="120" class="placeholder-rect" />
    <text x="1560" y="1990" class="placeholder-text">&lt;AF&gt;15</text>
  </g>
  <g id="AF17">
    <rect x="1650" y="1970" width="120" height="120" class="placeholder-rect" />
    <text x="1710" y="2030" class="placeholder-text">&lt;AF&gt;17</text>
  </g>
  <!-- Curved arrow for genetic stream -->
  <path d="M 1560 2060 Q 1600 2120 1650 2100" fill="none" stroke="black" stroke-width="4" marker-end="url(#arrowhead)" />

  <text x="1655" y="2180" text-anchor="middle" class="body-text">first-degree relative</text>
  <text x="1655" y="2240" text-anchor="middle" class="body-text">pairs inferred from</text>
  <text x="1655" y="2300" text-anchor="middle" class="body-text">kinship coefficients</text>

  <!-- Arrows from Data Processing to next panels -->
  <line x1="1320" y1="1000" x2="1360" y2="1000" class="edge-line" marker-end="url(#arrowhead)" />
  <line x1="1320" y1="2000" x2="1360" y2="2000" class="edge-line" marker-end="url(#arrowhead)" />
  <line x1="1940" y1="1000" x2="2000" y2="1000" class="edge-line" marker-end="url(#arrowhead)" />
  <line x1="1940" y1="2000" x2="2000" y2="2000" class="edge-line" marker-end="url(#arrowhead)" />

  <!-- Panel 2: Graph Construction -->
  <rect x="2010" y="290" width="1120" height="2360" class="panel-bg" />
  <g id="AF08">
    <rect x="2050" y="320" width="80" height="80" class="placeholder-rect" rx="40" />
    <text x="2090" y="360" class="placeholder-text">&lt;AF&gt;08</text>
  </g>
  <text x="2160" y="380" class="heading-text">Graph Construction</text>

  <!-- Patient Graph from Genetic Kinship -->
  <rect x="2040" y="520" width="1060" height="950" class="panel-bg-dark" />
  <text x="2570" y="600" text-anchor="middle" class="subheading-text">Patient Graph from</text>
  <text x="2570" y="670" text-anchor="middle" class="subheading-text">Genetic Kinship</text>

  <!-- Graph Nodes and Edges -->
  <line x1="2280" y1="800" x2="2570" y2="1000" class="edge-line" />
  <line x1="2780" y1="800" x2="2570" y2="1000" class="edge-line" />
  <line x1="2280" y1="1200" x2="2570" y2="1000" class="edge-line" />
  <line x1="2780" y1="1200" x2="2570" y2="1000" class="edge-line" />
  <line x1="2280" y1="800" x2="2780" y2="800" class="edge-line" />
  
  <text x="2530" y="880" text-anchor="middle" class="body-text">family-link</text>

  <circle cx="2280" cy="800" r="60" class="node-circle node-blue" />
  <circle cx="2780" cy="800" r="60" class="node-circle node-blue" />
  <circle cx="2280" cy="1200" r="60" class="node-circle node-blue" />
  <circle cx="2780" cy="1200" r="60" class="node-circle node-blue" />
  <circle cx="2570" cy="1000" r="60" class="node-circle node-orange" />
  
  <text x="2650" y="1015" class="body-text">patient <tspan class="math-text">i</tspan></text>
  
  <text x="2570" y="1120" text-anchor="middle" class="body-text">patients</text>
  <text x="2570" y="1170" text-anchor="middle" class="body-text">first-degree</text>
  <text x="2570" y="1220" text-anchor="middle" class="body-text">relatives</text>
  <text x="2570" y="1280" text-anchor="middle" class="math-text">j &#8712; N<sub>i</sub></text>

  <!-- Feature vectors -->
  <rect x="2850" y="770" width="30" height="40" fill="#a3b8d7" stroke="black" stroke-width="2" />
  <rect x="2880" y="770" width="30" height="40" fill="#f5c78a" stroke="black" stroke-width="2" />
  <rect x="2910" y="770" width="30" height="40" fill="#a5c79e" stroke="black" stroke-width="2" />
  <rect x="2940" y="770" width="30" height="40" fill="#bfa3d7" stroke="black" stroke-width="2" />
  <text x="2850" y="750" class="math-text-bold">h<tspan baseline-shift="sub" font-size="35">i</tspan> &#8712; &#8477;<tspan baseline-shift="super" font-size="35">C</tspan></text>

  <rect x="2850" y="1170" width="30" height="40" fill="#a3b8d7" stroke="black" stroke-width="2" />
  <rect x="2880" y="1170" width="30" height="40" fill="#f5c78a" stroke="black" stroke-width="2" />
  <rect x="2910" y="1170" width="30" height="40" fill="#a5c79e" stroke="black" stroke-width="2" />
  <rect x="2940" y="1170" width="30" height="40" fill="#bfa3d7" stroke="black" stroke-width="2" />
  <text x="2850" y="1150" class="math-text-bold">h<tspan baseline-shift="sub" font-size="35">i</tspan> &#8712; &#8477;<tspan baseline-shift="super" font-size="35">C</tspan></text>

  <rect x="2160" y="1280" width="30" height="40" fill="#a3b8d7" stroke="black" stroke-width="2" />
  <rect x="2190" y="1280" width="30" height="40" fill="#f5c78a" stroke="black" stroke-width="2" />
  <rect x="2220" y="1280" width="30" height="40" fill="#a5c79e" stroke="black" stroke-width="2" />
  <rect x="2250" y="1280" width="30" height="40" fill="#bfa3d7" stroke="black" stroke-width="2" />

  <text x="2570" y="1370" text-anchor="middle" class="body-text">genetically inferred first-degree relatives</text>
  <text x="2570" y="1430" text-anchor="middle" class="body-text">(kinship coefficient &#8805; 0.177)</text>

  <!-- Medical Ontology DAG -->
  <rect x="2040" y="1520" width="1060" height="1100" class="panel-bg-dark" />
  <text x="2570" y="1600" text-anchor="middle" class="subheading-text">Medical Ontology DAG</text>

  <!-- DAG Nodes and Edges -->
  <line x1="2570" y1="1750" x2="2420" y2="1950" class="edge-line" marker-end="url(#arrowhead)" />
  <line x1="2570" y1="1750" x2="2720" y2="1950" class="edge-line" marker-end="url(#arrowhead)" />
  
  <line x1="2420" y1="1950" x2="2270" y2="2150" class="edge-line" marker-end="url(#arrowhead)" />
  <line x1="2420" y1="1950" x2="2420" y2="2150" class="edge-line" marker-end="url(#arrowhead)" />
  <line x1="2420" y1="1950" x2="2570" y2="2150" class="edge-line" marker-end="url(#arrowhead)" />
  
  <line x1="2720" y1="1950" x2="2570" y2="2150" class="edge-line" marker-end="url(#arrowhead)" />
  <line x1="2720" y1="1950" x2="2870" y2="2150" class="edge-line" marker-end="url(#arrowhead)" />

  <line x1="2270" y1="2150" x2="2220" y2="2350" class="edge-line" marker-end="url(#arrowhead)" />
  <line x1="2420" y1="2150" x2="2470" y2="2350" class="edge-line" marker-end="url(#arrowhead)" />
  <line x1="2870" y1="2150" x2="2870" y2="2350" class="edge-line" marker-end="url(#arrowhead)" />

  <circle cx="2570" cy="1750" r="50" class="node-circle node-purple" />
  <text x="2640" y="1765" class="math-text-bold">e<tspan baseline-shift="sub" font-size="35">i</tspan> &#8712; &#8477;<tspan baseline-shift="super" font-size="35">m</tspan></text>

  <circle cx="2420" cy="1950" r="50" class="node-circle node-light-blue" />
  <circle cx="2720" cy="1950" r="50" class="node-circle node-purple" />
  <text x="2790" y="1965" class="math-text-bold">e<tspan baseline-shift="sub" font-size="35">i</tspan> &#8712; &#8477;<tspan baseline-shift="super" font-size="35">m</tspan></text>

  <circle cx="2270" cy="2150" r="50" class="node-circle node-light-blue" />
  <circle cx="2420" cy="2150" r="50" class="node-circle node-light-blue" />
  <circle cx="2570" cy="2150" r="50" class="node-circle node-light-blue" />
  <circle cx="2870" cy="2150" r="50" class="node-circle node-light-blue" />

  <circle cx="2220" cy="2350" r="50" class="node-circle node-light-green" />
  <text x="2220" y="2365" text-anchor="middle" class="math-text-bold">d<tspan baseline-shift="sub" font-size="35">1</tspan></text>
  
  <circle cx="2470" cy="2350" r="50" class="node-circle node-light-green" />
  <text x="2470" y="2365" text-anchor="middle" class="math-text-bold">d<tspan baseline-shift="sub" font-size="35">2</tspan></text>
  
  <text x="2670" y="2365" text-anchor="middle" class="math-text-bold">...</text>
  
  <circle cx="2870" cy="2350" r="50" class="node-circle node-orange" />
  <text x="2870" y="2365" text-anchor="middle" class="math-text-bold">d<tspan baseline-shift="sub" font-size="35">|C|</tspan></text>

  <text x="2570" y="2520" text-anchor="middle" class="body-text">Medical Ontology DAG</text>

  <!-- Arrows from Graph Construction to Attention Layer -->
  <line x1="3100" y1="1000" x2="3160" y2="1000" class="edge-line" marker-end="url(#arrowhead)" />
  <line x1="3100" y1="2000" x2="3160" y2="2000" class="edge-line" marker-end="url(#arrowhead)" />

  <!-- Panel 3: Attention Layer -->
  <rect x="3170" y="290" width="1010" height="2360" class="panel-bg" />
  <g id="AF01">
    <rect x="3210" y="320" width="80" height="80" class="placeholder-rect" rx="40" />
    <text x="3250" y="360" class="placeholder-text">&lt;AF&gt;01</text>
  </g>
  <text x="3320" y="380" class="heading-text">Attention Layer</text>

  <!-- Patient Graph Attention -->
  <rect x="3200" y="520" width="950" height="950" class="panel-bg-dark" />
  <text x="3675" y="600" text-anchor="middle" class="subheading-text">Patient Graph Attention</text>

  <!-- Attention Mechanism Graph -->
  <line x1="3350" y1="750" x2="3550" y2="950" class="edge-line" marker-end="url(#arrowhead)" />
  <line x1="3350" y1="950" x2="3550" y2="950" class="edge-line" marker-end="url(#arrowhead)" />
  <line x1="3350" y1="1150" x2="3550" y2="950" class="edge-line" marker-end="url(#arrowhead)" />
  
  <circle cx="3350" cy="750" r="50" class="node-circle node-blue" />
  <circle cx="3350" cy="950" r="50" class="node-circle node-blue" />
  <circle cx="3350" cy="1150" r="50" class="node-circle node-blue" />
  
  <text x="3450" y="820" class="math-text-bold">&#945;'<tspan baseline-shift="sub" font-size="35">ij</tspan></text>
  <text x="3450" y="930" class="math-text-bold">&#945;'<tspan baseline-shift="sub" font-size="35">ij</tspan></text>
  <text x="3450" y="1120" class="math-text-bold">&#945;'<tspan baseline-shift="sub" font-size="35">ij</tspan></text>
  <text x="3450" y="1250" class="math-text-bold">...</text>

  <circle cx="3550" cy="950" r="50" class="node-circle node-orange" />
  <text x="3620" y="920" class="math-text-bold">&#945;'<tspan baseline-shift="sub" font-size="35">ij</tspan></text>

  <rect x="3700" y="920" width="90" height="60" fill="white" stroke="black" stroke-width="3" rx="10" />
  <text x="3745" y="965" text-anchor="middle" class="math-text-bold">W<tspan baseline-shift="sub" font-size="35">e</tspan>h<tspan baseline-shift="sub" font-size="35">j</tspan></text>

  <line x1="3600" y1="950" x2="3700" y2="950" class="edge-line" />
  <line x1="3790" y1="950" x2="3950" y2="950" class="edge-line" marker-end="url(#arrowhead)" />

  <circle cx="4000" cy="950" r="50" class="node-circle node-green" />
  <text x="3900" y="1050" class="body-text">patient</text>
  <text x="3900" y="1110" class="body-text">representation</text>
  <text x="4000" y="1170" text-anchor="middle" class="math-text-bold">h'<tspan baseline-shift="sub" font-size="35">i</tspan></text>

  <text x="3450" y="700" class="body-text">= attention weight from</text>
  <text x="3450" y="750" class="body-text">relative <tspan class="math-text">j</tspan> to patient <tspan class="math-text">i</tspan></text>
  <text x="3950" y="800" class="body-text">relative disease</text>
  <text x="3950" y="850" class="body-text">features <tspan class="math-text-bold">h<tspan baseline-shift="sub" font-size="35">j</tspan></tspan></text>

  <!-- Formula Box -->
  <rect x="3280" y="1300" width="750" height="120" fill="white" stroke="black" stroke-width="3" rx="20" />
  <text x="3655" y="1375" text-anchor="middle" class="math-text-bold">h'<tspan baseline-shift="sub" font-size="35">i</tspan> = ReLU&#x239B;<tspan font-size="90">&#x2211;</tspan><tspan baseline-shift="sub" font-size="35">j&#8712;N<tspan baseline-shift="sub" font-size="25">i</tspan></tspan> &#945;'<tspan baseline-shift="sub" font-size="35">ij</tspan>W<tspan baseline-shift="sub" font-size="35">e</tspan>h<tspan baseline-shift="sub" font-size="35">j</tspan>&#x239E;</text>

  <!-- Ontology Attention -->
  <rect x="3200" y="1520" width="950" height="1100" class="panel-bg-dark" />
  <text x="3675" y="1600" text-anchor="middle" class="subheading-text">Ontology Attention</text>

  <!-- Attention Mechanism Graph -->
  <circle cx="3675" cy="1750" r="50" class="node-circle node-green" />
  
  <line x1="3675" y1="1800" x2="3350" y2="1950" class="edge-line" marker-end="url(#arrowhead)" />
  <line x1="3675" y1="1800" x2="3550" y2="1950" class="edge-line" marker-end="url(#arrowhead)" />
  <line x1="3675" y1="1800" x2="3950" y2="1950" class="edge-line" marker-end="url(#arrowhead)" />
  
  <circle cx="3350" cy="1950" r="50" class="node-circle node-purple" />
  <circle cx="3550" cy="1950" r="50" class="node-circle node-purple" />
  <circle cx="3950" cy="1950" r="50" class="node-circle node-light-green" />

  <text x="3600" y="1900" class="math-text-bold">&#945;<tspan baseline-shift="sub" font-size="35">ij</tspan></text>
  <text x="3750" y="1900" class="math-text-bold">&#945;<tspan baseline-shift="sub" font-size="35">ij</tspan></text>

  <line x1="3350" y1="2000" x2="3900" y2="2100" class="edge-dashed" marker-end="url(#arrowhead-dashed)" />
  <line x1="3550" y1="2000" x2="3900" y2="2100" class="edge-dashed" marker-end="url(#arrowhead-dashed)" />
  <line x1="3950" y1="2000" x2="3950" y2="2050" class="edge-dashed" marker-end="url(#arrowhead-dashed)" />

  <text x="3450" y="2100" text-anchor="middle" class="body-text">diagnosis code</text>
  <text x="3950" y="2150" text-anchor="middle" class="body-text">diagnosis-code</text>
  <text x="3950" y="2210" text-anchor="middle" class="body-text">representation <tspan class="math-text-bold">g<tspan baseline-shift="sub" font-size="35">i</tspan></tspan></text>

  <text x="3800" y="1680" class="body-text">&#945;<tspan baseline-shift="sub" font-size="35">ij</tspan> = attention weight</text>
  <text x="3800" y="1730" class="body-text">on code or ancestor <tspan class="math-text">j</tspan></text>
  <text x="3800" y="1780" class="body-text">when representing</text>
  <text x="3800" y="1830" class="body-text">diagnosis code <tspan class="math-text-bold">d<tspan baseline-shift="sub" font-size="35">i</tspan></tspan></text>

  <!-- Formula Box -->
  <rect x="3350" y="2250" width="600" height="250" fill="white" stroke="black" stroke-width="3" rx="20" />
  <text x="3650" y="2310" text-anchor="middle" class="body-text">convex combination</text>
  <text x="3650" y="2420" text-anchor="middle" class="math-text-bold">g<tspan baseline-shift="sub" font-size="35">i</tspan> = <tspan font-size="120">&#x2211;</tspan><tspan baseline-shift="sub" font-size="35">j&#8712;A(i)</tspan> &#945;<tspan baseline-shift="sub" font-size="35">ij</tspan>e<tspan baseline-shift="sub" font-size="35">j</tspan></text>

  <!-- Arrows from Attention Layer to Visit Representation -->
  <line x1="4150" y1="1000" x2="4230" y2="1000" class="edge-line" marker-end="url(#arrowhead)" />
  <line x1="4150" y1="2000" x2="4230" y2="2000" class="edge-line" marker-end="url(#arrowhead)" />

  <!-- Panel 4: Visit Representation and Prediction Layer -->
  <rect x="4240" y="290" width="1340" height="2360" class="panel-bg" />
  <g id="AF04">
    <rect x="4280" y="320" width="80" height="80" class="placeholder-rect" rx="40" />
    <text x="4320" y="360" class="placeholder-text">&lt;AF&gt;04</text>
  </g>
  <text x="4390" y="360" class="heading-text">Visit Representation</text>
  <text x="4390" y="440" class="heading-text">and Prediction Layer</text>

  <!-- Visit Representation Box -->
  <rect x="4280" y="520" width="1260" height="2100" class="panel-bg-dark" />
  <text x="4910" y="600" text-anchor="middle" class="subheading-text">Visit Representation <tspan class="math-text-bold">v<tspan baseline-shift="sub" font-size="40">t</tspan></tspan></text>

  <!-- Formula Box -->
  <rect x="4330" y="660" width="1160" height="250" fill="white" stroke="black" stroke-width="3" rx="20" />
  <text x="4360" y="740" class="math-text-bold">v<tspan baseline-shift="sub" font-size="35">t</tspan> <tspan class="body-text-bold">= patient representation +</tspan></text>
  <text x="4450" y="810" class="body-text-bold">+ ontology-aware diagnosis</text>
  <text x="4850" y="880" class="body-text-bold">eveitore representation</text>
  <text x="4850" y="950" class="body-text-bold">+ demographics</text>

  <!-- Left vertical block -->
  <rect x="4330" y="1000" width="350" height="1350" class="panel-bg-light" stroke="black" stroke-width="3" />
  
  <circle cx="4505" cy="1100" r="50" class="node-circle node-orange" />
  <text x="4505" y="1200" text-anchor="middle" class="body-text">Patient</text>
  <text x="4505" y="1260" text-anchor="middle" class="body-text">representation</text>
  <text x="4505" y="1320" text-anchor="middle" class="math-text-bold">h'<tspan baseline-shift="sub" font-size="35">i</tspan></text>

  <circle cx="4505" cy="1500" r="50" class="node-circle node-green" />
  <text x="4505" y="1600" text-anchor="middle" class="body-text">Ontology</text>
  <text x="4505" y="1660" text-anchor="middle" class="body-text">representation</text>
  <text x="4505" y="1720" text-anchor="middle" class="math-text-bold">g<tspan baseline-shift="sub" font-size="35">i</tspan></text>

  <text x="4505" y="1950" text-anchor="middle" class="subheading-text">Demographic</text>
  <text x="4505" y="2020" text-anchor="middle" class="subheading-text">embeddings</text>
  
  <rect x="4380" y="2080" width="100" height="60" fill="white" stroke="black" stroke-width="3" rx="20" />
  <text x="4430" y="2125" text-anchor="middle" class="body-text">age</text>
  
  <rect x="4530" y="2080" width="100" height="60" fill="white" stroke="black" stroke-width="3" rx="20" />
  <text x="4580" y="2125" text-anchor="middle" class="body-text">sex</text>

  <!-- Arrow from vertical block -->
  <line x1="4680" y1="1500" x2="4750" y2="1500" class="edge-line" marker-end="url(#arrowhead)" />

  <!-- Right side Sequence -->
  <rect x="4780" y="1100" width="80" height="80" fill="#a3b8d7" stroke="black" stroke-width="3" />
  <rect x="4860" y="1100" width="80" height="80" fill="#f5c78a" stroke="black" stroke-width="3" />
  <rect x="4940" y="1100" width="80" height="80" fill="#a5c79e" stroke="black" stroke-width="3" />
  <rect x="5020" y="1100" width="80" height="80" fill="#bfa3d7" stroke="black" stroke-width="3" />
  <rect x="5100" y="1100" width="80" height="80" fill="#d9e6f2" stroke="black" stroke-width="3" />
  <rect x="5180" y="1100" width="80" height="80" fill="#d9f2d9" stroke="black" stroke-width="3" />
  <text x="5320" y="1160" class="math-text-bold">v<tspan baseline-shift="sub" font-size="35">t</tspan></text>

  <line x1="5020" y1="1200" x2="5020" y2="1350" class="edge-line" marker-end="url(#arrowhead)" />

  <circle cx="4820" cy="1500" r="50" class="node-circle node-light-orange" />
  <text x="4820" y="1515" text-anchor="middle" class="math-text-bold">v<tspan baseline-shift="sub" font-size="35">1</tspan></text>
  
  <line x1="4870" y1="1500" x2="4930" y2="1500" class="edge-line" marker-end="url(#arrowhead)" />
  
  <circle cx="4980" cy="1500" r="50" class="node-circle node-light-orange" />
  <text x="4980" y="1515" text-anchor="middle" class="math-text-bold">v<tspan baseline-shift="sub" font-size="35">2</tspan></text>
  
  <line x1="5030" y1="1500" x2="5090" y2="1500" class="edge-line" marker-end="url(#arrowhead)" />
  
  <text x="5160" y="1515" text-anchor="middle" class="math-text-bold">...</text>
  
  <line x1="5230" y1="1500" x2="5290" y2="1500" class="edge-line" marker-end="url(#arrowhead)" />
  
  <circle cx="5340" cy="1500" r="50" class="node-circle node-orange" />
  <text x="5340" y="1515" text-anchor="middle" class="math-text-bold">v<tspan baseline-shift="sub" font-size="35">t</tspan></text>

  <!-- Bracket under sequence -->
  <path d="M 4770 1570 Q 4770 1600 4820 1600 L 5030 1600 Q 5080 1600 5080 1630 Q 5080 1600 5130 1600 L 5340 1600 Q 5390 1600 5390 1570" fill="none" stroke="black" stroke-width="4" />

  <text x="5080" y="1700" text-anchor="middle" class="body-text">LSTM</text>
  <text x="5080" y="1760" text-anchor="middle" class="body-text">prediction layer</text>

  <line x1="5080" y1="1800" x2="5080" y2="1950" class="edge-line" marker-end="url(#arrowhead)" />

  <g id="AF02">
    <rect x="4930" y="2000" width="300" height="200" class="placeholder-rect" />
    <text x="5080" y="2100" class="placeholder-text">&lt;AF&gt;02</text>
  </g>

  <text x="5080" y="2300" text-anchor="middle" class="subheading-text">Disease risk at next visit: <tspan class="math-text-bold">Y<tspan baseline-shift="sub" font-size="40">t+1</tspan></tspan></text>
  <text x="5080" y="2380" text-anchor="middle" class="body-text">Whether the target disease will</text>
  <text x="5080" y="2440" text-anchor="middle" class="body-text">occur the next clinical visit</text>

  <!-- Bottom Panel: Experimental Setting -->
  <rect x="30" y="2700" width="5550" height="320" class="border-box-dashed" />
  <text x="300" y="2840" text-anchor="middle" class="subheading-text">Experimental</text>
  <text x="300" y="2910" text-anchor="middle" class="subheading-text">Setting</text>
  
  <line x1="600" y1="2730" x2="600" y2="2990" class="edge-dashed" />

  <rect x="630" y="2730" width="1000" height="120" class="panel-bg-dark" />
  <text x="1130" y="2800" text-anchor="middle" class="body-text">AUC, precision, recall, F1 score</text>
  <text x="1130" y="2910" text-anchor="middle" class="body-text">Data split: 70% training /</text>
  <text x="1130" y="2970" text-anchor="middle" class="body-text">10% validation / 20% testing</text>

  <line x1="1680" y1="2730" x2="1680" y2="2990" class="edge-dashed" />

  <text x="1950" y="2840" text-anchor="middle" class="body-text">3-fold cross</text>
  <text x="1950" y="2900" text-anchor="middle" class="body-text">validation</text>

  <line x1="2220" y1="2730" x2="2220" y2="2990" class="edge-dashed" />

  <text x="2500" y="2840" text-anchor="middle" class="body-text">Disease onset</text>
  <text x="2500" y="2900" text-anchor="middle" class="body-text">prediction at next</text>
  <text x="2500" y="2960" text-anchor="middle" class="body-text">clinical visit</text>

  <line x1="2780" y1="2730" x2="2780" y2="2990" class="edge-dashed" />

  <circle cx="2880" cy="2780" r="8" fill="black" />
  <text x="2910" y="2790" class="body-text">118 predictive models</text>
  <text x="2910" y="2850" class="body-text">~ 10 ICD categories</text>
  <circle cx="2880" cy="2920" r="8" fill="black" />
  <text x="2910" y="2930" class="body-text">Patient excluded criteria with</text>
  <text x="2910" y="2990" class="body-text">no first-degree relatives</text>

  <line x1="3800" y1="2730" x2="3800" y2="2990" class="edge-dashed" />

  <rect x="3850" y="2730" width="900" height="260" class="panel-bg-dark" />
  <text x="4300" y="2800" text-anchor="middle" class="subheading-text">Group 1: No disease attention</text>
  <text x="4100" y="2900" text-anchor="middle" class="body-text">Logistic</text>
  <text x="4100" y="2960" text-anchor="middle" class="body-text">Regression</text>
  <text x="4450" y="2930" text-anchor="middle" class="body-text">XGBoost</text>
  <text x="4650" y="2930" text-anchor="middle" class="body-text">RNN</text>

  <rect x="4800" y="2730" width="730" height="260" class="panel-bg-dark" />
  <text x="5165" y="2790" text-anchor="middle" class="subheading-text">Group 2: Attention-based</text>
  <text x="5165" y="2850" text-anchor="middle" class="subheading-text">baselines</text>
  <text x="5000" y="2950" text-anchor="middle" class="body-text">GRAM</text>
  <text x="5300" y="2950" text-anchor="middle" class="body-text">Dipole</text>

</svg>