<svg xmlns="http://www.w3.org/2000/svg" viewBox="0 0 5632 3072" width="5632" height="3072">
  <defs>
    <!-- Arrowhead markers -->
    <marker id="arrow" viewBox="0 0 10 10" refX="10" refY="5" markerWidth="16" markerHeight="16" orient="auto-start-reverse">
      <path d="M 0 0 L 10 5 L 0 10 z" fill="black" />
    </marker>
    <marker id="arrow-down" viewBox="0 0 10 10" refX="5" refY="10" markerWidth="16" markerHeight="16" orient="auto-start-reverse">
      <path d="M 0 0 L 10 0 L 5 10 z" fill="black" />
    </marker>

    <!-- Colors -->
    <linearGradient id="bg-grad" x1="0%" y1="0%" x2="0%" y2="100%">
      <stop offset="0%" stop-color="#f8f9fa" />
      <stop offset="100%" stop-color="#e9ecef" />
    </linearGradient>

    <!-- Styles -->
    <style>
      .title { font-family: Arial, sans-serif; font-weight: bold; font-size: 72px; fill: black; text-anchor: middle; }
      .section-title { font-family: Arial, sans-serif; font-weight: bold; font-size: 64px; fill: black; text-anchor: middle; }
      .box-text { font-family: Arial, sans-serif; font-size: 52px; fill: white; text-anchor: middle; }
      .box-text-small { font-family: Arial, sans-serif; font-size: 44px; fill: white; text-anchor: middle; }
      .box-text-black { font-family: Arial, sans-serif; font-size: 52px; fill: black; }
      .caption { font-family: Arial, sans-serif; font-size: 40px; fill: black; }
      
      .panel-bg { fill: #eef2f7; stroke: #c0c8d4; stroke-width: 6; rx: 80; ry: 80; }
      .dark-blue-box { fill: #2b4c73; rx: 30; ry: 30; }
      .light-blue-box { fill: #659bc8; rx: 30; ry: 30; }
      .red-box { fill: #dc5b41; rx: 20; ry: 20; }
      .grey-box { fill: #8c8c8c; rx: 20; ry: 20; }
      
      .dashed-border-red { fill: none; stroke: #dc5b41; stroke-width: 8; stroke-dasharray: 30, 20; rx: 60; ry: 60; }
      .dashed-border-blue { fill: none; stroke: #2b4c73; stroke-width: 8; stroke-dasharray: 30, 20; rx: 60; ry: 60; }
      
      .arrow-line { stroke: black; stroke-width: 16; }
    </style>
  </defs>

  <!-- Background -->
  <rect width="5632" height="3072" fill="white" />

  <!-- Main Title -->
  <text x="2816" y="100" class="title">Data filtering process</text>

  <!-- ==================== Data Source Panel ==================== -->
  <!-- Panel Background -->
  <rect x="50" y="180" width="1150" height="2550" class="panel-bg" />
  <text x="625" y="300" class="section-title">Data Source</text>

  <!-- GWAS Box -->
  <rect x="180" y="580" width="890" height="740" class="dark-blue-box" />
  <g id="AF18">
    <rect x="500" y="650" width="250" height="300" fill="#808080" stroke="black" stroke-width="2"/>
    <text x="625" y="800" text-anchor="middle" dominant-baseline="middle" fill="white" font-size="36">&lt;AF&gt;18</text>
  </g>
  <text x="625" y="1080" class="box-text">GWAS</text>
  <text x="625" y="1160" class="box-text">(7228 Phenotypes)</text>

  <!-- MRI Box -->
  <rect x="180" y="1620" width="890" height="1000" class="dark-blue-box" />
  
  <g id="AF06">
    <rect x="370" y="1700" width="180" height="220" fill="#808080" stroke="black" stroke-width="2"/>
    <text x="460" y="1810" text-anchor="middle" dominant-baseline="middle" fill="white" font-size="32">&lt;AF&gt;06</text>
  </g>
  <g id="AF15">
    <rect x="670" y="1700" width="180" height="220" fill="#808080" stroke="black" stroke-width="2"/>
    <text x="760" y="1810" text-anchor="middle" dominant-baseline="middle" fill="white" font-size="32">&lt;AF&gt;15</text>
  </g>
  
  <text x="625" y="2060" class="box-text">Heart MRI (27)</text>
  
  <g id="AF13">
    <rect x="500" y="2150" width="250" height="220" fill="#808080" stroke="black" stroke-width="2"/>
    <text x="625" y="2260" text-anchor="middle" dominant-baseline="middle" fill="white" font-size="32">&lt;AF&gt;13</text>
  </g>
  <text x="625" y="2480" class="box-text">Brain MRI (884)</text>

  <!-- ==================== Processing Panel ==================== -->
  <!-- Panel Background -->
  <rect x="1310" y="180" width="2880" height="2550" class="panel-bg" />
  <text x="2750" y="300" class="section-title">Processing</text>

  <!-- Initial GWAS exclusion -->
  <text x="1450" y="470" class="box-text-black">Initial GWAS exclusion</text>
  <rect x="1450" y="520" width="1000" height="1680" class="dashed-border-red" />

  <!-- Red Boxes -->
  <rect x="1500" y="580" width="900" height="180" class="red-box" />
  <g id="AF25">
    <rect x="1550" y="620" width="150" height="100" fill="#808080" stroke="black" stroke-width="2"/>
    <text x="1625" y="670" text-anchor="middle" dominant-baseline="middle" fill="white" font-size="28">&lt;AF&gt;25</text>
  </g>
  <text x="2000" y="690" class="box-text">Illnesses (2653)</text>

  <rect x="1500" y="800" width="900" height="180" class="red-box" />
  <g id="AF10">
    <rect x="1550" y="840" width="150" height="100" fill="#808080" stroke="black" stroke-width="2"/>
    <text x="1625" y="890" text-anchor="middle" dominant-baseline="middle" fill="white" font-size="28">&lt;AF&gt;10</text>
  </g>
  <text x="2000" y="910" class="box-text">Medication (1049)</text>

  <rect x="1500" y="1020" width="900" height="180" class="red-box" />
  <g id="AF23">
    <rect x="1550" y="1060" width="150" height="100" fill="#808080" stroke="black" stroke-width="2"/>
    <text x="1625" y="1110" text-anchor="middle" dominant-baseline="middle" fill="white" font-size="28">&lt;AF&gt;23</text>
  </g>
  <text x="2000" y="1130" class="box-text">Operation (237)</text>

  <rect x="1500" y="1240" width="900" height="180" class="red-box" />
  <g id="AF07">
    <rect x="1550" y="1280" width="150" height="100" fill="#808080" stroke="black" stroke-width="2"/>
    <text x="1625" y="1330" text-anchor="middle" dominant-baseline="middle" fill="white" font-size="28">&lt;AF&gt;07</text>
  </g>
  <text x="2000" y="1310" class="box-text">Health-related</text>
  <text x="2000" y="1380" class="box-text">outcomes (1538)</text>

  <rect x="1500" y="1460" width="900" height="180" class="red-box" />
  <g id="AF08">
    <rect x="1550" y="1500" width="150" height="100" fill="#808080" stroke="black" stroke-width="2"/>
    <text x="1625" y="1550" text-anchor="middle" dominant-baseline="middle" fill="white" font-size="28">&lt;AF&gt;08</text>
  </g>
  <text x="2000" y="1530" class="box-text">Online follow-up</text>
  <text x="2000" y="1600" class="box-text">(740)</text>

  <rect x="1500" y="1680" width="900" height="180" class="dark-blue-box" />
  <g id="AF11">
    <rect x="1550" y="1720" width="150" height="100" fill="#808080" stroke="black" stroke-width="2"/>
    <text x="1625" y="1770" text-anchor="middle" dominant-baseline="middle" fill="white" font-size="28">&lt;AF&gt;11</text>
  </g>
  <text x="2000" y="1790" class="box-text">Other (1011)</text>

  <!-- Addition Box -->
  <rect x="2650" y="480" width="880" height="180" class="dark-blue-box" />
  <g id="AF14">
    <rect x="2700" y="520" width="150" height="100" fill="#808080" stroke="black" stroke-width="2"/>
    <text x="2775" y="570" text-anchor="middle" dominant-baseline="middle" fill="white" font-size="28">&lt;AF&gt;14</text>
  </g>
  <text x="3150" y="590" class="box-text">Addition (6)</text>

  <!-- Dashed Blue Box -->
  <rect x="2610" y="720" width="960" height="1500" class="dashed-border-blue" />

  <!-- Grey Boxes -->
  <rect x="2650" y="760" width="880" height="180" class="grey-box" />
  <g id="AF20">
    <rect x="2700" y="800" width="150" height="100" fill="#808080" stroke="black" stroke-width="2"/>
    <text x="2775" y="850" text-anchor="middle" dominant-baseline="middle" fill="white" font-size="28">&lt;AF&gt;20</text>
  </g>
  <text x="3150" y="870" class="box-text">Complex data (56)</text>

  <rect x="2650" y="980" width="880" height="180" class="grey-box" />
  <g id="AF02">
    <rect x="2700" y="1020" width="150" height="100" fill="#808080" stroke="black" stroke-width="2"/>
    <text x="2775" y="1070" text-anchor="middle" dominant-baseline="middle" fill="white" font-size="28">&lt;AF&gt;02</text>
  </g>
  <text x="3150" y="1090" class="box-text">ECG (22)</text>

  <rect x="2650" y="1200" width="880" height="180" class="grey-box" />
  <g id="AF03">
    <rect x="2700" y="1240" width="150" height="100" fill="#808080" stroke="black" stroke-width="2"/>
    <text x="2775" y="1290" text-anchor="middle" dominant-baseline="middle" fill="white" font-size="28">&lt;AF&gt;03</text>
  </g>
  <text x="3150" y="1310" class="box-text">Family history (80)</text>

  <rect x="2650" y="1420" width="880" height="180" class="grey-box" />
  <g id="AF19">
    <rect x="2700" y="1460" width="150" height="100" fill="#808080" stroke="black" stroke-width="2"/>
    <text x="2775" y="1510" text-anchor="middle" dominant-baseline="middle" fill="white" font-size="28">&lt;AF&gt;19</text>
  </g>
  <text x="3150" y="1530" class="box-text">Irrelevant (310)</text>

  <!-- Blue Boxes inside dashed -->
  <rect x="2650" y="1640" width="880" height="180" class="dark-blue-box" />
  <g id="AF16">
    <rect x="2700" y="1680" width="150" height="100" fill="#808080" stroke="black" stroke-width="2"/>
    <text x="2775" y="1730" text-anchor="middle" dominant-baseline="middle" fill="white" font-size="28">&lt;AF&gt;16</text>
  </g>
  <text x="3150" y="1750" class="box-text">Remain (543)</text>

  <rect x="2650" y="1860" width="880" height="180" class="dark-blue-box" />
  <g id="AF12">
    <rect x="2700" y="1900" width="150" height="100" fill="#808080" stroke="black" stroke-width="2"/>
    <text x="2775" y="1950" text-anchor="middle" dominant-baseline="middle" fill="white" font-size="28">&lt;AF&gt;12</text>
  </g>
  <text x="3150" y="1970" class="box-text">Ultrasound (12)</text>

  <!-- Datafields Database Cylinder -->
  <path d="M 3700 1150 A 210 40 0 0 0 4120 1150 L 4120 1550 A 210 40 0 0 1 3700 1550 Z" fill="#2b4c73" />
  <ellipse cx="3910" cy="1150" rx="210" ry="40" fill="#2b4c73" stroke="white" stroke-width="4" />
  <path d="M 3700 1150 A 210 40 0 0 0 4120 1150" fill="none" stroke="white" stroke-width="4" />
  <text x="3910" y="1380" class="box-text">Datafields</text>
  <text x="3910" y="1460" class="box-text">(366)</text>

  <!-- PCA Box -->
  <rect x="1500" y="2350" width="2560" height="300" class="dark-blue-box" />
  <g id="AF01">
    <rect x="1750" y="2400" width="200" height="200" fill="#808080" stroke="black" stroke-width="2"/>
    <text x="1850" y="2500" text-anchor="middle" dominant-baseline="middle" fill="white" font-size="36">&lt;AF&gt;01</text>
  </g>
  <text x="2680" y="2480" class="box-text">Principal Component Analysis</text>
  <text x="2680" y="2560" class="box-text">(After imputation)</text>

  <!-- ==================== Outcome Panel ==================== -->
  <!-- Panel Background -->
  <rect x="4280" y="180" width="1300" height="2550" class="panel-bg" />
  <text x="4930" y="300" class="section-title">Outcome</text>

  <!-- Top Dashed Blue Box -->
  <rect x="4340" y="380" width="1180" height="1520" class="dashed-border-blue" />

  <!-- Outcome Grid Boxes -->
  <rect x="4410" y="450" width="500" height="420" class="light-blue-box" />
  <g id="AF22">
    <rect x="4535" y="480" width="250" height="200" fill="#808080" stroke="black" stroke-width="2"/>
    <text x="4660" y="580" text-anchor="middle" dominant-baseline="middle" fill="white" font-size="36">&lt;AF&gt;22</text>
  </g>
  <text x="4660" y="780" class="box-text">Base (19)</text>

  <rect x="4950" y="450" width="500" height="420" class="light-blue-box" />
  <g id="AF24">
    <rect x="5075" y="480" width="250" height="200" fill="#808080" stroke="black" stroke-width="2"/>
    <text x="5200" y="580" text-anchor="middle" dominant-baseline="middle" fill="white" font-size="36">&lt;AF&gt;24</text>
  </g>
  <text x="5200" y="780" class="box-text">Lifestyle (158)</text>

  <rect x="4410" y="910" width="500" height="420" class="light-blue-box" />
  <g id="AF21">
    <rect x="4535" y="940" width="250" height="200" fill="#808080" stroke="black" stroke-width="2"/>
    <text x="4660" y="1040" text-anchor="middle" dominant-baseline="middle" fill="white" font-size="36">&lt;AF&gt;21</text>
  </g>
  <text x="4660" y="1200" class="box-text-small">Measurement</text>
  <text x="4660" y="1270" class="box-text-small">(156)</text>

  <rect x="4950" y="910" width="500" height="420" class="light-blue-box" />
  <g id="AF27">
    <rect x="5075" y="940" width="250" height="200" fill="#808080" stroke="black" stroke-width="2"/>
    <text x="5200" y="1040" text-anchor="middle" dominant-baseline="middle" fill="white" font-size="36">&lt;AF&gt;27</text>
  </g>
  <text x="5200" y="1200" class="box-text-small">Environment</text>
  <text x="5200" y="1270" class="box-text-small">(31)</text>

  <rect x="4410" y="1370" width="500" height="420" class="light-blue-box" />
  <g id="AF26">
    <rect x="4535" y="1400" width="250" height="200" fill="#808080" stroke="black" stroke-width="2"/>
    <text x="4660" y="1500" text-anchor="middle" dominant-baseline="middle" fill="white" font-size="36">&lt;AF&gt;26</text>
  </g>
  <text x="4660" y="1660" class="box-text-small">Environment</text>
  <text x="4660" y="1730" class="box-text-small">(31)</text>

  <rect x="4950" y="1370" width="500" height="420" class="light-blue-box" />
  <g id="AF05">
    <rect x="5075" y="1400" width="250" height="200" fill="#808080" stroke="black" stroke-width="2"/>
    <text x="5200" y="1500" text-anchor="middle" dominant-baseline="middle" fill="white" font-size="36">&lt;AF&gt;05</text>
  </g>
  <text x="5200" y="1660" class="box-text-small">Genetic</text>
  <text x="5200" y="1730" class="box-text-small">(2)</text>

  <!-- Bottom Dashed Blue Box -->
  <rect x="4340" y="1960" width="1180" height="710" class="dashed-border-blue" />

  <!-- Bottom Outcome Boxes -->
  <rect x="4380" y="2020" width="350" height="590" class="light-blue-box" />
  <g id="AF09">
    <rect x="4455" y="2060" width="200" height="250" fill="#808080" stroke="black" stroke-width="2"/>
    <text x="4555" y="2185" text-anchor="middle" dominant-baseline="middle" fill="white" font-size="36">&lt;AF&gt;09</text>
  </g>
  <text x="4555" y="2400" class="box-text-small">Ultrasound</text>
  <text x="4555" y="2470" class="box-text-small">(5)</text>

  <rect x="4750" y="2020" width="350" height="590" class="light-blue-box" />
  <g id="AF17">
    <rect x="4825" y="2060" width="200" height="250" fill="#808080" stroke="black" stroke-width="2"/>
    <text x="4925" y="2185" text-anchor="middle" dominant-baseline="middle" fill="white" font-size="36">&lt;AF&gt;17</text>
  </g>
  <text x="4925" y="2400" class="box-text-small">Heart MRI</text>
  <text x="4925" y="2470" class="box-text-small">(10)</text>

  <rect x="5120" y="2020" width="350" height="590" class="light-blue-box" />
  <g id="AF04">
    <rect x="5195" y="2060" width="200" height="250" fill="#808080" stroke="black" stroke-width="2"/>
    <text x="5295" y="2185" text-anchor="middle" dominant-baseline="middle" fill="white" font-size="36">&lt;AF&gt;04</text>
  </g>
  <text x="5295" y="2400" class="box-text-small">Brain MRI</text>
  <text x="5295" y="2470" class="box-text-small">(34)</text>

  <!-- ==================== Arrows ==================== -->
  <!-- GWAS to Initial GWAS exclusion -->
  <line x1="1070" y1="950" x2="1420" y2="950" class="arrow-line" marker-end="url(#arrow)" />
  
  <!-- MRI to PCA -->
  <line x1="1070" y1="2050" x2="1350" y2="2050" class="arrow-line" />
  <line x1="1350" y1="2050" x2="1350" y2="2500" class="arrow-line" />
  <line x1="1350" y1="2500" x2="1470" y2="2500" class="arrow-line" marker-end="url(#arrow)" />

  <!-- Initial GWAS exclusion to Datafields -->
  <line x1="2450" y1="1360" x2="2580" y2="1360" class="arrow-line" marker-end="url(#arrow)" />
  
  <!-- Remain to PCA -->
  <line x1="3130" y1="2220" x2="3130" y2="2320" class="arrow-line" marker-end="url(#arrow)" />
  
  <!-- Remain dashed box to Datafields -->
  <line x1="3570" y1="1360" x2="3670" y2="1360" class="arrow-line" marker-end="url(#arrow)" />

  <!-- Datafields to Outcome Top -->
  <line x1="4120" y1="1360" x2="4310" y2="1360" class="arrow-line" marker-end="url(#arrow)" />

  <!-- PCA to Outcome Bottom -->
  <line x1="4060" y1="2500" x2="4310" y2="2500" class="arrow-line" marker-end="url(#arrow)" />

  <!-- ==================== Footer Caption ==================== -->
  <text x="50" y="2920" class="caption">Starting from 7228 GWAS phenotypes, the pipeline removes disease-related, temporally misaligned, complex, low-participation, family-history, and irrelevant variables, then groups the</text>
  <text x="50" y="2980" class="caption">retained fields into six predictor categories. Heart MRI, Brain MRI, and Ultrasound structural data are imputed and summarized by PCA before entering the imaging outcome group.</text>
</svg>